<?xml version="1.0" encoding="UTF-8"?>
<!DOCTYPE svg PUBLIC "-//W3C//DTD SVG 1.1//EN" "http://www.w3.org/Graphics/SVG/1.1/DTD/svg11.dtd">
<svg xmlns="http://www.w3.org/2000/svg" version="1.1" width="375px" height="491px" style="shape-rendering:geometricPrecision; text-rendering:geometricPrecision; image-rendering:optimizeQuality; fill-rule:evenodd; clip-rule:evenodd" xmlns:xlink="http://www.w3.org/1999/xlink">
<g><path style="opacity:1" fill="#1c1c1c" d="M -0.5,-0.5 C 35.1667,-0.5 70.8333,-0.5 106.5,-0.5C 107.263,0.26791 108.263,0.76791 109.5,1C 105.5,1.66667 105.5,2.33333 109.5,3C 108.5,3.33333 107.5,3.66667 106.5,4C 107.833,4.66667 107.833,5.33333 106.5,6C 109.544,6.35886 109.878,7.02552 107.5,8C 110.167,8.66667 110.167,9.33333 107.5,10C 110.167,10.6667 110.167,11.3333 107.5,12C 110.167,12.6667 110.167,13.3333 107.5,14C 112.833,14.6667 112.833,15.3333 107.5,16C 110.167,16.6667 110.167,17.3333 107.5,18C 111.852,18.4189 112.185,19.0855 108.5,20C 109.833,20.6667 109.833,21.3333 108.5,22C 115.167,22.6667 115.167,23.3333 108.5,24C 109.833,24.6667 109.833,25.3333 108.5,26C 114.134,26.6341 114.468,27.1341 109.5,27.5C 109.5,28.5 109.5,29.5 109.5,30.5C 114.794,30.6822 114.794,31.1822 109.5,32C 112.167,32.6667 112.167,33.3333 109.5,34C 113.852,34.4189 114.185,35.0855 110.5,36C 111.833,36.6667 111.833,37.3333 110.5,38C 114.5,38.6667 114.5,39.3333 110.5,40C 114.5,40.6667 114.5,41.3333 110.5,42C 113.544,42.3589 113.878,43.0255 111.5,44C 114.167,44.6667 114.167,45.3333 111.5,46C 116.833,46.6667 116.833,47.3333 111.5,48C 111.952,49.6124 113.285,50.6124 115.5,51C 114.5,51.3333 113.5,51.6667 112.5,52C 113.833,52.6667 113.833,53.3333 112.5,54C 118.175,54.4641 118.508,55.1307 113.5,56C 116.167,56.6667 116.167,57.3333 113.5,58C 118.833,58.6667 118.833,59.3333 113.5,60C 114.167,60.3333 114.833,60.6667 115.5,61C 115.167,62 114.833,63 114.5,64C 117.544,64.3589 117.878,65.0255 115.5,66C 118.167,66.6667 118.167,67.3333 115.5,68C 120.833,68.6667 120.833,69.3333 115.5,70C 115.952,71.6124 117.285,72.6124 119.5,73C 118.5,73.3333 117.5,73.6667 116.5,74C 117.67,75.7547 119.337,76.7547 121.5,77C 120.167,77.3333 118.833,77.6667 117.5,78C 120.167,78.6667 120.167,79.3333 117.5,80C 121.852,80.4189 122.185,81.0855 118.5,82C 119.833,82.6667 119.833,83.3333 118.5,84C 121.544,84.3589 121.878,85.0255 119.5,86C 122.167,86.6667 122.167,87.3333 119.5,88C 123.852,88.4189 124.185,89.0855 120.5,90C 121.833,90.6667 121.833,91.3333 120.5,92C 126.175,92.4641 126.508,93.1307 121.5,94C 124.167,94.6667 124.167,95.3333 121.5,96C 125.852,96.4189 126.185,97.0855 122.5,98C 123.833,98.6667 123.833,99.3333 122.5,100C 125.544,100.359 125.878,101.026 123.5,102C 123.952,103.612 125.285,104.612 127.5,105C 125.117,105.065 124.45,105.898 125.5,107.5C 130.721,108.624 130.721,109.458 125.5,110C 125.952,111.612 127.285,112.612 129.5,113C 125.5,113.667 125.5,114.333 129.5,115C 128.833,115.333 128.167,115.667 127.5,116C 131.852,116.419 132.185,117.086 128.5,118C 129.833,118.667 129.833,119.333 128.5,120C 134.175,120.464 134.508,121.131 129.5,122C 129.952,123.612 131.285,124.612 133.5,125C 129.5,125.667 129.5,126.333 133.5,127C 130.833,127.667 130.833,128.333 133.5,129C 133.167,130 132.833,131 132.5,132C 138.175,132.464 138.508,133.131 133.5,134C 133.952,135.612 135.285,136.612 137.5,137C 133.5,137.667 133.5,138.333 137.5,139C 136.833,139.333 136.167,139.667 135.5,140C 139.852,140.419 140.185,141.086 136.5,142C 137.67,143.755 139.337,144.755 141.5,145C 140.167,145.333 138.833,145.667 137.5,146C 137.952,147.612 139.285,148.612 141.5,149C 138.833,149.667 138.833,150.333 141.5,151C 141.167,151.333 140.833,151.667 140.5,152C 144.5,152.667 144.5,153.333 140.5,154C 141.67,155.755 143.337,156.755 145.5,157C 141.5,157.667 141.5,158.333 145.5,159C 144.833,159.333 144.167,159.667 143.5,160C 147.852,160.419 148.185,161.086 144.5,162C 145.833,162.667 145.833,163.333 144.5,164C 150.175,164.464 150.508,165.131 145.5,166C 147.301,166.317 147.634,166.984 146.5,168C 149.544,168.359 149.878,169.026 147.5,170C 149.301,170.317 149.634,170.984 148.5,172C 154.175,172.464 154.508,173.131 149.5,174C 149.952,175.612 151.285,176.612 153.5,177C 150.833,177.667 150.833,178.333 153.5,179C 153.167,179.333 152.833,179.667 152.5,180C 159.167,180.667 159.167,181.333 152.5,182C 155.544,182.359 155.878,183.026 153.5,184C 157.852,184.419 158.185,185.086 154.5,186C 157.544,186.359 157.878,187.026 155.5,188C 162.503,188.497 162.837,189.163 156.5,190C 157.67,191.755 159.337,192.755 161.5,193C 157.5,193.667 157.5,194.333 161.5,195C 160.833,195.333 160.167,195.667 159.5,196C 166.503,196.497 166.837,197.163 160.5,198C 163.544,198.359 163.878,199.026 161.5,200C 165.852,200.419 166.185,201.086 162.5,202C 165.544,202.359 165.878,203.026 163.5,204C 165.5,204.333 167.5,204.667 169.5,205C 168.167,205.333 166.833,205.667 165.5,206C 165.952,207.612 167.285,208.612 169.5,209C 166.833,209.667 166.833,210.333 169.5,211C 169.167,211.333 168.833,211.667 168.5,212C 174.175,212.464 174.508,213.131 169.5,214C 169.952,215.612 171.285,216.612 173.5,217C 170.833,217.667 170.833,218.333 173.5,219C 173.167,219.333 172.833,219.667 172.5,220C 178.175,220.464 178.508,221.131 173.5,222C 175.5,223 177.5,224 179.5,225C 178.5,225.333 177.5,225.667 176.5,226C 177.67,227.755 179.337,228.755 181.5,229C 177.5,229.667 177.5,230.333 181.5,231C 180.833,231.333 180.167,231.667 179.5,232C 181.5,232.333 183.5,232.667 185.5,233C 184.062,233.219 182.729,233.719 181.5,234.5C 183.059,236.131 185.059,236.964 187.5,237C 186.167,237.333 184.833,237.667 183.5,238C 185.301,238.317 185.634,238.984 184.5,240C 186.167,240.333 187.833,240.667 189.5,241C 185.5,241.667 185.5,242.333 189.5,243C 188.833,243.333 188.167,243.667 187.5,244C 194.503,244.497 194.837,245.163 188.5,246C 190.167,247 191.833,248 193.5,249C 190.833,249.667 190.833,250.333 193.5,251C 193.167,251.333 192.833,251.667 192.5,252C 194.167,252.333 195.833,252.667 197.5,253C 193.5,253.667 193.5,254.333 197.5,255C 196.833,255.333 196.167,255.667 195.5,256C 197.5,256.333 199.5,256.667 201.5,257C 200.062,257.219 198.729,257.719 197.5,258.5C 199.059,260.131 201.059,260.964 203.5,261C 202.167,261.333 200.833,261.667 199.5,262C 201.226,263.53 203.226,264.53 205.5,265C 201.5,265.667 201.5,266.333 205.5,267C 205.167,267.333 204.833,267.667 204.5,268C 210.175,268.464 210.508,269.131 205.5,270C 207.5,271 209.5,272 211.5,273C 207.5,273.667 207.5,274.333 211.5,275C 211.167,275.333 210.833,275.667 210.5,276C 216.175,276.464 216.508,277.131 211.5,278C 213.226,279.53 215.226,280.53 217.5,281C 214.833,281.667 214.833,282.333 217.5,283C 217.167,283.333 216.833,283.667 216.5,284C 218.167,284.333 219.833,284.667 221.5,285C 217.5,285.667 217.5,286.333 221.5,287C 220.833,287.333 220.167,287.667 219.5,288C 221.5,288.333 223.5,288.667 225.5,289C 220.167,289.667 220.167,290.333 225.5,291C 224.833,291.333 224.167,291.667 223.5,292C 230.503,292.497 230.837,293.163 224.5,294C 225.5,294.333 226.5,294.667 227.5,295C 227.167,295.333 226.833,295.667 226.5,296C 228.167,296.333 229.833,296.667 231.5,297C 228.057,297.221 227.724,298.221 230.5,300C 236.175,300.464 236.508,301.131 231.5,302C 233.226,303.53 235.226,304.53 237.5,305C 236.833,305.333 236.167,305.667 235.5,306C 237.226,307.53 239.226,308.53 241.5,309C 240.833,309.333 240.167,309.667 239.5,310C 241.226,311.53 243.226,312.53 245.5,313C 244.5,313.333 243.5,313.667 242.5,314C 244.642,314.438 245.975,315.272 246.5,316.5C 246.17,332.675 246.504,348.675 247.5,364.5C 247.953,365.458 248.619,366.292 249.5,367C 257.833,367.667 266.167,367.667 274.5,367C 275.381,366.292 276.047,365.458 276.5,364.5C 277.49,358.69 277.823,352.69 277.5,346.5C 281.893,346.457 282.226,346.957 278.5,348C 279.5,348.333 280.5,348.667 281.5,349C 281.167,349.333 280.833,349.667 280.5,350C 282.167,350.333 283.833,350.667 285.5,351C 283.009,351.626 283.009,352.459 285.5,353.5C 288.107,354.318 290.774,354.818 293.5,355C 291.5,355.333 289.5,355.667 287.5,356C 288.833,356.333 290.167,356.667 291.5,357C 291.167,357.333 290.833,357.667 290.5,358C 292.833,358.333 295.167,358.667 297.5,359C 295.833,359.333 294.167,359.667 292.5,360C 294.759,361.469 297.759,362.469 301.5,363C 300.167,363.333 298.833,363.667 297.5,364C 299.448,365.618 302.114,366.618 305.5,367C 304.5,367.333 303.5,367.667 302.5,368C 305.936,369.776 309.603,370.776 313.5,371C 306.833,371.667 306.833,372.333 313.5,373C 312.5,373.333 311.5,373.667 310.5,374C 312.833,374.333 315.167,374.667 317.5,375C 312.167,375.667 312.167,376.333 317.5,377C 317.167,377.333 316.833,377.667 316.5,378C 318.833,378.333 321.167,378.667 323.5,379C 318.167,379.667 318.167,380.333 323.5,381C 323.167,381.333 322.833,381.667 322.5,382C 324.833,382.333 327.167,382.667 329.5,383C 324.167,383.667 324.167,384.333 329.5,385C 329.167,385.333 328.833,385.667 328.5,386C 331.5,386.333 334.5,386.667 337.5,387C 335.5,387.333 333.5,387.667 331.5,388C 334.475,390.004 337.808,391.004 341.5,391C 336.167,391.667 336.167,392.333 341.5,393C 341.167,393.333 340.833,393.667 340.5,394C 343.5,394.333 346.5,394.667 349.5,395C 341.5,395.667 341.5,396.333 349.5,397C 348.5,397.333 347.5,397.667 346.5,398C 348.833,398.333 351.167,398.667 353.5,399C 352.5,399.333 351.5,399.667 350.5,400C 353.936,401.776 357.603,402.776 361.5,403C 356.167,403.667 356.167,404.333 361.5,405C 361.167,405.333 360.833,405.667 360.5,406C 363.5,406.333 366.5,406.667 369.5,407C 362.833,407.667 362.833,408.333 369.5,409C 368.833,409.333 368.167,409.667 367.5,410C 369.81,410.497 372.143,410.663 374.5,410.5C 374.5,437.167 374.5,463.833 374.5,490.5C 346.5,490.5 318.5,490.5 290.5,490.5C 289.653,489.034 288.32,488.2 286.5,488C 287.5,487.667 288.5,487.333 289.5,487C 285.759,486.469 282.759,485.469 280.5,484C 282.167,483.667 283.833,483.333 285.5,483C 281.603,482.776 277.936,481.776 274.5,480C 275.5,479.667 276.5,479.333 277.5,479C 273.759,478.469 270.759,477.469 268.5,476C 270.167,475.667 271.833,475.333 273.5,475C 269.603,474.776 265.936,473.776 262.5,472C 263.5,471.667 264.5,471.333 265.5,471C 261.759,470.469 258.759,469.469 256.5,468C 258.167,467.667 259.833,467.333 261.5,467C 257.603,466.776 253.936,465.776 250.5,464C 251.5,463.667 252.5,463.333 253.5,463C 250.114,462.618 247.448,461.618 245.5,460C 246.833,459.667 248.167,459.333 249.5,459C 246.044,459.093 243.044,458.093 240.5,456C 241.5,455.667 242.5,455.333 243.5,455C 240.292,454.597 237.292,453.597 234.5,452C 235.5,451.667 236.5,451.333 237.5,451C 234.114,450.618 231.448,449.618 229.5,448C 230.833,447.667 232.167,447.333 233.5,447C 229.759,446.469 226.759,445.469 224.5,444C 226.167,443.667 227.833,443.333 229.5,443C 225.808,443.004 222.475,442.004 219.5,440C 220.167,439.667 220.833,439.333 221.5,439C 219.047,438.273 216.714,437.273 214.5,436C 216.167,435.667 217.833,435.333 219.5,435C 217.167,434.667 214.833,434.333 212.5,434C 212.833,433.667 213.167,433.333 213.5,433C 209.5,432.333 209.5,431.667 213.5,431C 211.292,430.809 209.292,430.309 207.5,429.5C 208.303,428.577 208.47,427.577 208,426.5C 206.556,428.155 204.722,428.822 202.5,428.5C 202.215,426.712 202.548,425.045 203.5,423.5C 204.609,424.59 205.609,424.59 206.5,423.5C 205.311,422.571 203.978,422.238 202.5,422.5C 202.5,421.167 202.5,419.833 202.5,418.5C 208.228,418.043 207.228,418.043 199.5,418.5C 197.833,418.5 196.167,418.5 194.5,418.5C 193.833,417.167 193.167,417.167 192.5,418.5C 191.475,418.103 191.308,417.437 192,416.5C 193.067,415.809 194.234,415.309 195.5,415C 192.692,414.981 190.359,413.981 188.5,412C 190.167,411.667 191.833,411.333 193.5,411C 189.844,410.921 186.51,409.921 183.5,408C 184.833,407.667 186.167,407.333 187.5,407C 184.512,406.783 181.845,405.783 179.5,404C 181.5,403.667 183.5,403.333 185.5,403C 181.844,402.921 178.51,401.921 175.5,400C 176.167,399.667 176.833,399.333 177.5,399C 169.942,396.616 169.942,395.283 177.5,395C 173.844,394.921 170.51,393.921 167.5,392C 168.833,391.667 170.167,391.333 171.5,391C 168.671,390.952 166.337,389.952 164.5,388C 166.167,387.667 167.833,387.333 169.5,387C 166.044,387.093 163.044,386.093 160.5,384C 161.5,383.667 162.5,383.333 163.5,383C 161.833,382.667 160.167,382.333 158.5,382C 158.833,381.667 159.167,381.333 159.5,381C 158.5,380.667 157.5,380.333 156.5,380C 158.167,379.667 159.833,379.333 161.5,379C 159.167,378.667 156.833,378.333 154.5,378C 155.634,376.984 155.301,376.317 153.5,376C 154.833,375.667 156.167,375.333 157.5,375C 155.5,374.667 153.5,374.333 151.5,374C 152.167,373.667 152.833,373.333 153.5,373C 148.167,372.333 148.167,371.667 153.5,371C 151.292,370.809 149.292,370.309 147.5,369.5C 163.248,367.875 176.748,361.542 188,350.5C 188.667,349.167 188.667,347.833 188,346.5C 183.101,340.674 177.768,335.341 172,330.5C 168.265,332.284 164.765,334.451 161.5,337C 137.394,345.975 120.227,338.808 110,315.5C 105.113,293.068 113.279,277.568 134.5,269C 147.86,266.803 159.86,269.803 170.5,278C 171.5,278.667 172.5,278.667 173.5,278C 178.7,273.135 183.533,267.968 188,262.5C 188.667,261.167 188.667,259.833 188,258.5C 171.577,242.722 152.077,236.889 129.5,241C 108.672,246.336 93.3391,258.503 83.5,277.5C 81.0972,276.909 79.7638,275.742 79.5,274C 80.1667,273.667 80.8333,273.333 81.5,273C 80.1667,272.667 78.8333,272.333 77.5,272C 79.8776,271.026 79.5443,270.359 76.5,270C 82.8365,269.163 82.5032,268.497 75.5,268C 77.8776,267.026 77.5443,266.359 74.5,266C 75.5,265.667 76.5,265.333 77.5,265C 75.3367,264.755 73.67,263.755 72.5,262C 76.1851,261.086 75.8518,260.419 71.5,260C 73.8776,259.026 73.5443,258.359 70.5,258C 71.5,257.667 72.5,257.333 73.5,257C 71.3367,256.755 69.67,255.755 68.5,254C 69.5,253.667 70.5,253.333 71.5,253C 69.2262,252.53 67.2262,251.53 65.5,250C 70.5081,249.131 70.1748,248.464 64.5,248C 65.6341,246.984 65.3008,246.317 63.5,246C 68.5081,245.131 68.1748,244.464 62.5,244C 63.6341,242.984 63.3008,242.317 61.5,242C 66.5081,241.131 66.1748,240.464 60.5,240C 61.6341,238.984 61.3008,238.317 59.5,238C 64.5081,237.131 64.1748,236.464 58.5,236C 59.6341,234.984 59.3008,234.317 57.5,234C 62.7208,233.458 62.7208,232.624 57.5,231.5C 56.45,229.898 57.1167,229.065 59.5,229C 58.1667,228.667 56.8333,228.333 55.5,228C 57.8776,227.026 57.5443,226.359 54.5,226C 55.5,225.667 56.5,225.333 57.5,225C 55.3367,224.755 53.67,223.755 52.5,222C 56.1851,221.086 55.8518,220.419 51.5,220C 53.8776,219.026 53.5443,218.359 50.5,218C 54.1851,217.086 53.8518,216.419 49.5,216C 51.8776,215.026 51.5443,214.359 48.5,214C 54.8365,213.163 54.5032,212.497 47.5,212C 50.1667,211.333 50.1667,210.667 47.5,210C 48.1667,209.667 48.8333,209.333 49.5,209C 47.2853,208.612 45.952,207.612 45.5,206C 50.5081,205.131 50.1748,204.464 44.5,204C 45.6341,202.984 45.3008,202.317 43.5,202C 45.8776,201.026 45.5443,200.359 42.5,200C 46.5,199.333 46.5,198.667 42.5,198C 43.5,197.667 44.5,197.333 45.5,197C 43.3367,196.755 41.67,195.755 40.5,194C 44.1851,193.086 43.8518,192.419 39.5,192C 41.8776,191.026 41.5443,190.359 38.5,190C 39.5,189.667 40.5,189.333 41.5,189C 36.3718,187.438 36.3718,186.105 41.5,185C 39.8333,184.667 38.1667,184.333 36.5,184C 37.6341,182.984 37.3008,182.317 35.5,182C 40.7208,181.458 40.7208,180.624 35.5,179.5C 34.45,177.898 35.1167,177.065 37.5,177C 36.1667,176.667 34.8333,176.333 33.5,176C 35.8776,175.026 35.5443,174.359 32.5,174C 39.1667,173.333 39.1667,172.667 32.5,172C 33.6341,170.984 33.3008,170.317 31.5,170C 33.8776,169.026 33.5443,168.359 30.5,168C 34.5,167.333 34.5,166.667 30.5,166C 31.5,165.667 32.5,165.333 33.5,165C 31.3367,164.755 29.67,163.755 28.5,162C 32.5,161.333 32.5,160.667 28.5,160C 29.6341,158.984 29.3008,158.317 27.5,158C 29.8776,157.026 29.5443,156.359 26.5,156C 27.8333,155.333 27.8333,154.667 26.5,154C 30.1851,153.086 29.8518,152.419 25.5,152C 27.8776,151.026 27.5443,150.359 24.5,150C 31.1667,149.333 31.1667,148.667 24.5,148C 25.6341,146.984 25.3008,146.317 23.5,146C 26.1667,145.333 26.1667,144.667 23.5,144C 25.8776,143.026 25.5443,142.359 22.5,142C 26.2259,140.957 25.8926,140.457 21.5,140.5C 21.5,139.5 21.5,138.5 21.5,137.5C 26.4675,137.134 26.1342,136.634 20.5,136C 21.8333,135.333 21.8333,134.667 20.5,134C 24.1851,133.086 23.8518,132.419 19.5,132C 22.1667,131.333 22.1667,130.667 19.5,130C 20.1667,129.667 20.8333,129.333 21.5,129C 19.2853,128.612 17.952,127.612 17.5,126C 22.7208,125.458 22.7208,124.624 17.5,123.5C 16.45,121.898 17.1167,121.065 19.5,121C 17.2853,120.612 15.952,119.612 15.5,118C 20.8333,117.333 20.8333,116.667 15.5,116C 17.8776,115.026 17.5443,114.359 14.5,114C 18.5,113.333 18.5,112.667 14.5,112C 18.1851,111.086 17.8518,110.419 13.5,110C 18.7937,109.182 18.7937,108.682 13.5,108.5C 13.5,107.5 13.5,106.5 13.5,105.5C 18.4675,105.134 18.1342,104.634 12.5,104C 13.8333,103.333 13.8333,102.667 12.5,102C 16.1851,101.086 15.8518,100.419 11.5,100C 14.1667,99.3333 14.1667,98.6667 11.5,98C 13.8776,97.0255 13.5443,96.3589 10.5,96C 14.5,95.3333 14.5,94.6667 10.5,94C 14.1851,93.0855 13.8518,92.4189 9.5,92C 12.1667,91.3333 12.1667,90.6667 9.5,90C 10.8333,89.6667 12.1667,89.3333 13.5,89C 7.31216,86.8813 7.31216,85.548 13.5,85C 11.8333,84.6667 10.1667,84.3333 8.5,84C 9.63411,82.984 9.30077,82.3173 7.5,82C 12.8333,81.3333 12.8333,80.6667 7.5,80C 10.1667,79.3333 10.1667,78.6667 7.5,78C 9.87759,77.0255 9.54426,76.3589 6.5,76C 10.5,75.3333 10.5,74.6667 6.5,74C 7.5,73.6667 8.5,73.3333 9.5,73C 7.28529,72.6124 5.95196,71.6124 5.5,70C 10.7937,69.1822 10.7937,68.6822 5.5,68.5C 5.5,67.5 5.5,66.5 5.5,65.5C 10.4675,65.1341 10.1342,64.6341 4.5,64C 4.5,62.6667 4.5,61.3333 4.5,60C 8.1851,59.0855 7.85177,58.4189 3.5,58C 6.16667,57.3333 6.16667,56.6667 3.5,56C 8.83333,55.3333 8.83333,54.6667 3.5,54C 6.16667,53.3333 6.16667,52.6667 3.5,52C 5.87759,51.0255 5.54426,50.3589 2.5,50C 6.5,49.3333 6.5,48.6667 2.5,48C 6.5,47.3333 6.5,46.6667 2.5,46C 3.83333,45.3333 3.83333,44.6667 2.5,44C 6.1851,43.0855 5.85177,42.4189 1.5,42C 4.16667,41.3333 4.16667,40.6667 1.5,40C 6.79369,39.1822 6.79369,38.6822 1.5,38.5C 1.5,37.5 1.5,36.5 1.5,35.5C 6.4675,35.1341 6.13417,34.6341 0.5,34C 1.83333,33.3333 1.83333,32.6667 0.5,32C 7.16667,31.3333 7.16667,30.6667 0.5,30C 1.83333,29.3333 1.83333,28.6667 0.5,28C 1.5,27.6667 2.5,27.3333 3.5,27C 1.35821,26.5616 0.0248731,25.7282 -0.5,24.5C -0.5,16.1667 -0.5,7.83333 -0.5,-0.5 Z"/></g>
<g><path style="opacity:1" fill="#222222" d="M 106.5,-0.5 C 137.5,-0.5 168.5,-0.5 199.5,-0.5C 199.918,0.221579 200.584,0.721579 201.5,1C 198.833,1.66667 198.833,2.33333 201.5,3C 198.833,3.66667 198.833,4.33333 201.5,5C 200.833,5.33333 200.167,5.66667 199.5,6C 203.852,6.41888 204.185,7.08555 200.5,8C 201.833,8.66667 201.833,9.33333 200.5,10C 204.5,10.6667 204.5,11.3333 200.5,12C 201.833,12.6667 201.833,13.3333 200.5,14C 207.167,14.6667 207.167,15.3333 200.5,16C 201.67,17.7547 203.337,18.7547 205.5,19C 204.207,19.49 202.873,19.6567 201.5,19.5C 201.5,20.5 201.5,21.5 201.5,22.5C 206.794,22.6822 206.794,23.1822 201.5,24C 201.952,25.6124 203.285,26.6124 205.5,27C 204.5,27.3333 203.5,27.6667 202.5,28C 203.833,28.6667 203.833,29.3333 202.5,30C 205.544,30.3589 205.878,31.0255 203.5,32C 206.167,32.6667 206.167,33.3333 203.5,34C 206.167,34.6667 206.167,35.3333 203.5,36C 205.301,36.3173 205.634,36.984 204.5,38C 211.167,38.6667 211.167,39.3333 204.5,40C 205.833,40.6667 205.833,41.3333 204.5,42C 210.134,42.6341 210.468,43.1341 205.5,43.5C 205.5,44.5 205.5,45.5 205.5,46.5C 210.794,46.6822 210.794,47.1822 205.5,48C 205.952,49.6124 207.285,50.6124 209.5,51C 205.5,51.6667 205.5,52.3333 209.5,53C 208.833,53.3333 208.167,53.6667 207.5,54C 212.833,54.6667 212.833,55.3333 207.5,56C 207.952,57.6124 209.285,58.6124 211.5,59C 210.5,59.3333 209.5,59.6667 208.5,60C 209.833,60.6667 209.833,61.3333 208.5,62C 211.544,62.3589 211.878,63.0255 209.5,64C 214.833,64.6667 214.833,65.3333 209.5,66C 209.952,67.6124 211.285,68.6124 213.5,69C 212.099,69.4101 210.766,69.9101 209.5,70.5C 202.905,62.6785 195.572,55.5119 187.5,49C 186.668,48.3123 186.002,48.479 185.5,49.5C 195.752,61.2621 198.252,74.5954 193,89.5C 184.455,102.382 174.122,113.715 162,123.5C 158.284,127.548 154.95,131.882 152,136.5C 145.473,151.644 148.64,164.477 161.5,175C 171.804,182.797 183.137,188.631 195.5,192.5C 196.521,191.998 196.688,191.332 196,190.5C 188.761,183.938 183.095,176.271 179,167.5C 177.794,156.781 180.461,147.114 187,138.5C 194.667,128.833 202.333,119.167 210,109.5C 213.678,103.633 215.844,97.2994 216.5,90.5C 217.83,91.8321 219.497,92.6655 221.5,93C 220.167,93.3333 218.833,93.6667 217.5,94C 217.952,95.6124 219.285,96.6124 221.5,97C 218.833,97.6667 218.833,98.3333 221.5,99C 220.833,99.3333 220.167,99.6667 219.5,100C 226.503,100.497 226.837,101.163 220.5,102C 221.67,103.755 223.337,104.755 225.5,105C 224.167,105.333 222.833,105.667 221.5,106C 223.301,106.317 223.634,106.984 222.5,108C 223.448,108.483 224.448,108.649 225.5,108.5C 224.205,112.423 222.372,116.09 220,119.5C 211.904,128.259 204.571,137.593 198,147.5C 191.385,159.042 192.052,170.042 200,180.5C 199.534,173.582 201.201,167.249 205,161.5C 210.301,155.198 215.968,149.198 222,143.5C 225.456,139.211 228.289,134.544 230.5,129.5C 232.485,129.859 233.151,130.692 232.5,132C 233.953,133.649 234.953,135.482 235.5,137.5C 235.911,143.189 234.744,148.522 232,153.5C 225.004,161.496 217.67,169.163 210,176.5C 206.798,180.431 205.964,184.764 207.5,189.5C 213.543,182.309 220.876,176.809 229.5,173C 235.9,168.361 239.9,162.195 241.5,154.5C 242.686,155.982 245.352,156.816 249.5,157C 243.312,157.548 243.312,158.881 249.5,161C 245.5,161.667 245.5,162.333 249.5,163C 248.833,163.333 248.167,163.667 247.5,164C 254.503,164.497 254.837,165.163 248.5,166C 251.544,166.359 251.878,167.026 249.5,168C 253.852,168.419 254.185,169.086 250.5,170C 251.5,170.333 252.5,170.667 253.5,171C 253.167,171.333 252.833,171.667 252.5,172C 258.175,172.464 258.508,173.131 253.5,174C 253.952,175.612 255.285,176.612 257.5,177C 254.833,177.667 254.833,178.333 257.5,179C 257.167,179.333 256.833,179.667 256.5,180C 258.167,180.333 259.833,180.667 261.5,181C 257.5,181.667 257.5,182.333 261.5,183C 260.833,183.333 260.167,183.667 259.5,184C 263.852,184.419 264.185,185.086 260.5,186C 261.67,187.755 263.337,188.755 265.5,189C 262.833,189.667 262.833,190.333 265.5,191C 265.167,191.333 264.833,191.667 264.5,192C 270.175,192.464 270.508,193.131 265.5,194C 267.301,194.317 267.634,194.984 266.5,196C 268.833,196.333 271.167,196.667 273.5,197C 267.312,197.548 267.312,198.881 273.5,201C 270.833,201.667 270.833,202.333 273.5,203C 273.167,203.333 272.833,203.667 272.5,204C 278.175,204.464 278.508,205.131 273.5,206C 275.5,207 277.5,208 279.5,209C 276.057,209.221 275.724,210.221 278.5,212C 284.175,212.464 284.508,213.131 279.5,214C 281.226,215.53 283.226,216.53 285.5,217C 281.5,217.667 281.5,218.333 285.5,219C 285.167,219.333 284.833,219.667 284.5,220C 290.175,220.464 290.508,221.131 285.5,222C 286.833,222.333 288.167,222.667 289.5,223C 288.833,223.333 288.167,223.667 287.5,224C 294.503,224.497 294.837,225.163 288.5,226C 289.5,226.333 290.5,226.667 291.5,227C 291.167,227.333 290.833,227.667 290.5,228C 292.833,228.333 295.167,228.667 297.5,229C 291.312,229.548 291.312,230.881 297.5,233C 296.833,233.333 296.167,233.667 295.5,234C 297.226,235.53 299.226,236.53 301.5,237C 298.833,237.667 298.833,238.333 301.5,239C 272.342,239.955 243.342,240.788 214.5,241.5C 213.176,245.107 212.509,249.107 212.5,253.5C 212.667,257.5 212.833,261.5 213,265.5C 213.383,266.056 213.883,266.389 214.5,266.5C 224.987,267.494 235.654,267.828 246.5,267.5C 246.5,283.833 246.5,300.167 246.5,316.5C 245.975,315.272 244.642,314.438 242.5,314C 243.5,313.667 244.5,313.333 245.5,313C 243.226,312.53 241.226,311.53 239.5,310C 240.167,309.667 240.833,309.333 241.5,309C 239.226,308.53 237.226,307.53 235.5,306C 236.167,305.667 236.833,305.333 237.5,305C 235.226,304.53 233.226,303.53 231.5,302C 236.508,301.131 236.175,300.464 230.5,300C 227.724,298.221 228.057,297.221 231.5,297C 229.833,296.667 228.167,296.333 226.5,296C 226.833,295.667 227.167,295.333 227.5,295C 226.5,294.667 225.5,294.333 224.5,294C 230.837,293.163 230.503,292.497 223.5,292C 224.167,291.667 224.833,291.333 225.5,291C 220.167,290.333 220.167,289.667 225.5,289C 223.5,288.667 221.5,288.333 219.5,288C 220.167,287.667 220.833,287.333 221.5,287C 217.5,286.333 217.5,285.667 221.5,285C 219.833,284.667 218.167,284.333 216.5,284C 216.833,283.667 217.167,283.333 217.5,283C 214.833,282.333 214.833,281.667 217.5,281C 215.226,280.53 213.226,279.53 211.5,278C 216.508,277.131 216.175,276.464 210.5,276C 210.833,275.667 211.167,275.333 211.5,275C 207.5,274.333 207.5,273.667 211.5,273C 209.5,272 207.5,271 205.5,270C 210.508,269.131 210.175,268.464 204.5,268C 204.833,267.667 205.167,267.333 205.5,267C 201.5,266.333 201.5,265.667 205.5,265C 203.226,264.53 201.226,263.53 199.5,262C 200.833,261.667 202.167,261.333 203.5,261C 201.059,260.964 199.059,260.131 197.5,258.5C 198.729,257.719 200.062,257.219 201.5,257C 199.5,256.667 197.5,256.333 195.5,256C 196.167,255.667 196.833,255.333 197.5,255C 193.5,254.333 193.5,253.667 197.5,253C 195.833,252.667 194.167,252.333 192.5,252C 192.833,251.667 193.167,251.333 193.5,251C 190.833,250.333 190.833,249.667 193.5,249C 191.833,248 190.167,247 188.5,246C 194.837,245.163 194.503,244.497 187.5,244C 188.167,243.667 188.833,243.333 189.5,243C 185.5,242.333 185.5,241.667 189.5,241C 187.833,240.667 186.167,240.333 184.5,240C 185.634,238.984 185.301,238.317 183.5,238C 184.833,237.667 186.167,237.333 187.5,237C 185.059,236.964 183.059,236.131 181.5,234.5C 182.729,233.719 184.062,233.219 185.5,233C 183.5,232.667 181.5,232.333 179.5,232C 180.167,231.667 180.833,231.333 181.5,231C 177.5,230.333 177.5,229.667 181.5,229C 179.337,228.755 177.67,227.755 176.5,226C 177.5,225.667 178.5,225.333 179.5,225C 177.5,224 175.5,223 173.5,222C 178.508,221.131 178.175,220.464 172.5,220C 172.833,219.667 173.167,219.333 173.5,219C 170.833,218.333 170.833,217.667 173.5,217C 171.285,216.612 169.952,215.612 169.5,214C 174.508,213.131 174.175,212.464 168.5,212C 168.833,211.667 169.167,211.333 169.5,211C 166.833,210.333 166.833,209.667 169.5,209C 167.285,208.612 165.952,207.612 165.5,206C 166.833,205.667 168.167,205.333 169.5,205C 167.5,204.667 165.5,204.333 163.5,204C 165.878,203.026 165.544,202.359 162.5,202C 166.185,201.086 165.852,200.419 161.5,200C 163.878,199.026 163.544,198.359 160.5,198C 166.837,197.163 166.503,196.497 159.5,196C 160.167,195.667 160.833,195.333 161.5,195C 157.5,194.333 157.5,193.667 161.5,193C 159.337,192.755 157.67,191.755 156.5,190C 162.837,189.163 162.503,188.497 155.5,188C 157.878,187.026 157.544,186.359 154.5,186C 158.185,185.086 157.852,184.419 153.5,184C 155.878,183.026 155.544,182.359 152.5,182C 159.167,181.333 159.167,180.667 152.5,180C 152.833,179.667 153.167,179.333 153.5,179C 150.833,178.333 150.833,177.667 153.5,177C 151.285,176.612 149.952,175.612 149.5,174C 154.508,173.131 154.175,172.464 148.5,172C 149.634,170.984 149.301,170.317 147.5,170C 149.878,169.026 149.544,168.359 146.5,168C 147.634,166.984 147.301,166.317 145.5,166C 150.508,165.131 150.175,164.464 144.5,164C 145.833,163.333 145.833,162.667 144.5,162C 148.185,161.086 147.852,160.419 143.5,160C 144.167,159.667 144.833,159.333 145.5,159C 141.5,158.333 141.5,157.667 145.5,157C 143.337,156.755 141.67,155.755 140.5,154C 144.5,153.333 144.5,152.667 140.5,152C 140.833,151.667 141.167,151.333 141.5,151C 138.833,150.333 138.833,149.667 141.5,149C 139.285,148.612 137.952,147.612 137.5,146C 138.833,145.667 140.167,145.333 141.5,145C 139.337,144.755 137.67,143.755 136.5,142C 140.185,141.086 139.852,140.419 135.5,140C 136.167,139.667 136.833,139.333 137.5,139C 133.5,138.333 133.5,137.667 137.5,137C 135.285,136.612 133.952,135.612 133.5,134C 138.508,133.131 138.175,132.464 132.5,132C 132.833,131 133.167,130 133.5,129C 130.833,128.333 130.833,127.667 133.5,127C 129.5,126.333 129.5,125.667 133.5,125C 131.285,124.612 129.952,123.612 129.5,122C 134.508,121.131 134.175,120.464 128.5,120C 129.833,119.333 129.833,118.667 128.5,118C 132.185,117.086 131.852,116.419 127.5,116C 128.167,115.667 128.833,115.333 129.5,115C 125.5,114.333 125.5,113.667 129.5,113C 127.285,112.612 125.952,111.612 125.5,110C 130.721,109.458 130.721,108.624 125.5,107.5C 124.45,105.898 125.117,105.065 127.5,105C 125.285,104.612 123.952,103.612 123.5,102C 125.878,101.026 125.544,100.359 122.5,100C 123.833,99.3333 123.833,98.6667 122.5,98C 126.185,97.0855 125.852,96.4189 121.5,96C 124.167,95.3333 124.167,94.6667 121.5,94C 126.508,93.1307 126.175,92.4641 120.5,92C 121.833,91.3333 121.833,90.6667 120.5,90C 124.185,89.0855 123.852,88.4189 119.5,88C 122.167,87.3333 122.167,86.6667 119.5,86C 121.878,85.0255 121.544,84.3589 118.5,84C 119.833,83.3333 119.833,82.6667 118.5,82C 122.185,81.0855 121.852,80.4189 117.5,80C 120.167,79.3333 120.167,78.6667 117.5,78C 118.833,77.6667 120.167,77.3333 121.5,77C 119.337,76.7547 117.67,75.7547 116.5,74C 117.5,73.6667 118.5,73.3333 119.5,73C 117.285,72.6124 115.952,71.6124 115.5,70C 120.833,69.3333 120.833,68.6667 115.5,68C 118.167,67.3333 118.167,66.6667 115.5,66C 117.878,65.0255 117.544,64.3589 114.5,64C 114.833,63 115.167,62 115.5,61C 114.833,60.6667 114.167,60.3333 113.5,60C 118.833,59.3333 118.833,58.6667 113.5,58C 116.167,57.3333 116.167,56.6667 113.5,56C 118.508,55.1307 118.175,54.4641 112.5,54C 113.833,53.3333 113.833,52.6667 112.5,52C 113.5,51.6667 114.5,51.3333 115.5,51C 113.285,50.6124 111.952,49.6124 111.5,48C 116.833,47.3333 116.833,46.6667 111.5,46C 114.167,45.3333 114.167,44.6667 111.5,44C 113.878,43.0255 113.544,42.3589 110.5,42C 114.5,41.3333 114.5,40.6667 110.5,40C 114.5,39.3333 114.5,38.6667 110.5,38C 111.833,37.3333 111.833,36.6667 110.5,36C 114.185,35.0855 113.852,34.4189 109.5,34C 112.167,33.3333 112.167,32.6667 109.5,32C 114.794,31.1822 114.794,30.6822 109.5,30.5C 109.5,29.5 109.5,28.5 109.5,27.5C 114.468,27.1341 114.134,26.6341 108.5,26C 109.833,25.3333 109.833,24.6667 108.5,24C 115.167,23.3333 115.167,22.6667 108.5,22C 109.833,21.3333 109.833,20.6667 108.5,20C 112.185,19.0855 111.852,18.4189 107.5,18C 110.167,17.3333 110.167,16.6667 107.5,16C 112.833,15.3333 112.833,14.6667 107.5,14C 110.167,13.3333 110.167,12.6667 107.5,12C 110.167,11.3333 110.167,10.6667 107.5,10C 110.167,9.33333 110.167,8.66667 107.5,8C 109.878,7.02552 109.544,6.35886 106.5,6C 107.833,5.33333 107.833,4.66667 106.5,4C 107.5,3.66667 108.5,3.33333 109.5,3C 105.5,2.33333 105.5,1.66667 109.5,1C 108.263,0.76791 107.263,0.26791 106.5,-0.5 Z"/></g>
<g><path style="opacity:1" fill="#282828" d="M 199.5,-0.5 C 230.5,-0.5 261.5,-0.5 292.5,-0.5C 293.598,0.396953 293.598,1.23029 292.5,2C 296.5,2.66667 296.5,3.33333 292.5,4C 293.67,5.75467 295.337,6.75467 297.5,7C 296.167,7.33333 294.833,7.66667 293.5,8C 296.167,8.66667 296.167,9.33333 293.5,10C 298.833,10.6667 298.833,11.3333 293.5,12C 293.952,13.6124 295.285,14.6124 297.5,15C 293.5,15.6667 293.5,16.3333 297.5,17C 293.5,17.6667 293.5,18.3333 297.5,19C 294.833,19.6667 294.833,20.3333 297.5,21C 296.833,21.3333 296.167,21.6667 295.5,22C 300.833,22.6667 300.833,23.3333 295.5,24C 295.952,25.6124 297.285,26.6124 299.5,27C 298.5,27.3333 297.5,27.6667 296.5,28C 297.833,28.6667 297.833,29.3333 296.5,30C 302.175,30.4641 302.508,31.1307 297.5,32C 300.167,32.6667 300.167,33.3333 297.5,34C 301.852,34.4189 302.185,35.0855 298.5,36C 299.833,36.6667 299.833,37.3333 298.5,38C 302.5,38.6667 302.5,39.3333 298.5,40C 301.544,40.3589 301.878,41.0255 299.5,42C 302.167,42.6667 302.167,43.3333 299.5,44C 301.301,44.3173 301.634,44.984 300.5,46C 307.167,46.6667 307.167,47.3333 300.5,48C 301.67,49.7547 303.337,50.7547 305.5,51C 304.167,51.3333 302.833,51.6667 301.5,52C 301.952,53.6124 303.285,54.6124 305.5,55C 302.833,55.6667 302.833,56.3333 305.5,57C 304.833,57.3333 304.167,57.6667 303.5,58C 307.852,58.4189 308.185,59.0855 304.5,60C 305.833,60.6667 305.833,61.3333 304.5,62C 307.544,62.3589 307.878,63.0255 305.5,64C 309.852,64.4189 310.185,65.0855 306.5,66C 307.833,66.6667 307.833,67.3333 306.5,68C 309.544,68.3589 309.878,69.0255 307.5,70C 309.301,70.3173 309.634,70.984 308.5,72C 312.5,72.6667 312.5,73.3333 308.5,74C 309.67,75.7547 311.337,76.7547 313.5,77C 309.5,77.6667 309.5,78.3333 313.5,79C 309.5,79.6667 309.5,80.3333 313.5,81C 310.833,81.6667 310.833,82.3333 313.5,83C 313.167,83.3333 312.833,83.6667 312.5,84C 318.175,84.4641 318.508,85.1307 313.5,86C 313.952,87.6124 315.285,88.6124 317.5,89C 313.5,89.6667 313.5,90.3333 317.5,91C 316.833,91.3333 316.167,91.6667 315.5,92C 322.503,92.4966 322.837,93.1632 316.5,94C 317.67,95.7547 319.337,96.7547 321.5,97C 317.5,97.6667 317.5,98.3333 321.5,99C 320.833,99.3333 320.167,99.6667 319.5,100C 323.852,100.419 324.185,101.086 320.5,102C 321.67,103.755 323.337,104.755 325.5,105C 324.5,105.333 323.5,105.667 322.5,106C 323.67,107.755 325.337,108.755 327.5,109C 326.5,109.333 325.5,109.667 324.5,110C 325.67,111.755 327.337,112.755 329.5,113C 325.5,113.667 325.5,114.333 329.5,115C 328.833,115.333 328.167,115.667 327.5,116C 331.852,116.419 332.185,117.086 328.5,118C 329.67,119.755 331.337,120.755 333.5,121C 329.5,121.667 329.5,122.333 333.5,123C 332.833,123.333 332.167,123.667 331.5,124C 338.503,124.497 338.837,125.163 332.5,126C 333.67,127.755 335.337,128.755 337.5,129C 333.5,129.667 333.5,130.333 337.5,131C 337.167,131.333 336.833,131.667 336.5,132C 342.175,132.464 342.508,133.131 337.5,134C 337.952,135.612 339.285,136.612 341.5,137C 340.833,137.333 340.167,137.667 339.5,138C 341.226,139.53 343.226,140.53 345.5,141C 341.5,141.667 341.5,142.333 345.5,143C 344.833,143.333 344.167,143.667 343.5,144C 347.852,144.419 348.185,145.086 344.5,146C 345.5,146.333 346.5,146.667 347.5,147C 347.167,147.333 346.833,147.667 346.5,148C 352.175,148.464 352.508,149.131 347.5,150C 349.226,151.53 351.226,152.53 353.5,153C 349.5,153.667 349.5,154.333 353.5,155C 353.167,155.333 352.833,155.667 352.5,156C 358.175,156.464 358.508,157.131 353.5,158C 357.852,158.419 358.185,159.086 354.5,160C 356.167,160.333 357.833,160.667 359.5,161C 358.106,161.171 357.272,161.671 357,162.5C 358.826,164.074 360.993,164.907 363.5,165C 362.167,165.333 360.833,165.667 359.5,166C 361.226,167.53 363.226,168.53 365.5,169C 361.5,169.667 361.5,170.333 365.5,171C 365.167,171.333 364.833,171.667 364.5,172C 366.167,172.333 367.833,172.667 369.5,173C 365.5,173.667 365.5,174.333 369.5,175C 368.833,175.333 368.167,175.667 367.5,176C 369.5,176.333 371.5,176.667 373.5,177C 372.167,177.333 370.833,177.667 369.5,178C 370.9,179.438 372.567,180.271 374.5,180.5C 374.5,221.833 374.5,263.167 374.5,304.5C 373.955,302.958 372.289,302.125 369.5,302C 370.833,301.667 372.167,301.333 373.5,301C 370.044,301.093 367.044,300.093 364.5,298C 366.167,297.667 367.833,297.333 369.5,297C 365.603,296.776 361.936,295.776 358.5,294C 359.5,293.667 360.5,293.333 361.5,293C 358.114,292.618 355.448,291.618 353.5,290C 354.833,289.667 356.167,289.333 357.5,289C 353.759,288.469 350.759,287.469 348.5,286C 350.167,285.667 351.833,285.333 353.5,285C 349.808,285.004 346.475,284.004 343.5,282C 344.833,281.667 346.167,281.333 347.5,281C 344.512,280.783 341.845,279.783 339.5,278C 340.167,277.667 340.833,277.333 341.5,277C 339.833,276.667 338.167,276.333 336.5,276C 336.833,275.667 337.167,275.333 337.5,275C 333.5,274.333 333.5,273.667 337.5,273C 335.833,272.667 334.167,272.333 332.5,272C 332.833,271.667 333.167,271.333 333.5,271C 329.5,270.333 329.5,269.667 333.5,269C 330.114,268.618 327.448,267.618 325.5,266C 326.833,265.667 328.167,265.333 329.5,265C 327.5,264.667 325.5,264.333 323.5,264C 324.167,263.667 324.833,263.333 325.5,263C 320.167,262.333 320.167,261.667 325.5,261C 323.5,260.667 321.5,260.333 319.5,260C 320.167,259.667 320.833,259.333 321.5,259C 316.167,258.333 316.167,257.667 321.5,257C 319.5,256.667 317.5,256.333 315.5,256C 316.167,255.667 316.833,255.333 317.5,255C 312.167,254.333 312.167,253.667 317.5,253C 315.527,252.505 313.527,252.338 311.5,252.5C 311.789,248.894 311.456,245.394 310.5,242C 278.502,241.5 246.502,241.333 214.5,241.5C 243.342,240.788 272.342,239.955 301.5,239C 298.833,238.333 298.833,237.667 301.5,237C 299.226,236.53 297.226,235.53 295.5,234C 296.167,233.667 296.833,233.333 297.5,233C 291.312,230.881 291.312,229.548 297.5,229C 295.167,228.667 292.833,228.333 290.5,228C 290.833,227.667 291.167,227.333 291.5,227C 290.5,226.667 289.5,226.333 288.5,226C 294.837,225.163 294.503,224.497 287.5,224C 288.167,223.667 288.833,223.333 289.5,223C 288.167,222.667 286.833,222.333 285.5,222C 290.508,221.131 290.175,220.464 284.5,220C 284.833,219.667 285.167,219.333 285.5,219C 281.5,218.333 281.5,217.667 285.5,217C 283.226,216.53 281.226,215.53 279.5,214C 284.508,213.131 284.175,212.464 278.5,212C 275.724,210.221 276.057,209.221 279.5,209C 277.5,208 275.5,207 273.5,206C 278.508,205.131 278.175,204.464 272.5,204C 272.833,203.667 273.167,203.333 273.5,203C 270.833,202.333 270.833,201.667 273.5,201C 267.312,198.881 267.312,197.548 273.5,197C 271.167,196.667 268.833,196.333 266.5,196C 267.634,194.984 267.301,194.317 265.5,194C 270.508,193.131 270.175,192.464 264.5,192C 264.833,191.667 265.167,191.333 265.5,191C 262.833,190.333 262.833,189.667 265.5,189C 263.337,188.755 261.67,187.755 260.5,186C 264.185,185.086 263.852,184.419 259.5,184C 260.167,183.667 260.833,183.333 261.5,183C 257.5,182.333 257.5,181.667 261.5,181C 259.833,180.667 258.167,180.333 256.5,180C 256.833,179.667 257.167,179.333 257.5,179C 254.833,178.333 254.833,177.667 257.5,177C 255.285,176.612 253.952,175.612 253.5,174C 258.508,173.131 258.175,172.464 252.5,172C 252.833,171.667 253.167,171.333 253.5,171C 252.5,170.667 251.5,170.333 250.5,170C 254.185,169.086 253.852,168.419 249.5,168C 251.878,167.026 251.544,166.359 248.5,166C 254.837,165.163 254.503,164.497 247.5,164C 248.167,163.667 248.833,163.333 249.5,163C 245.5,162.333 245.5,161.667 249.5,161C 243.312,158.881 243.312,157.548 249.5,157C 245.352,156.816 242.686,155.982 241.5,154.5C 241.802,147.57 239.969,141.237 236,135.5C 235.536,136.094 235.369,136.761 235.5,137.5C 234.953,135.482 233.953,133.649 232.5,132C 233.151,130.692 232.485,129.859 230.5,129.5C 233.341,120.387 234.174,111.054 233,101.5C 231.726,96.2858 229.393,91.6192 226,87.5C 228.16,94.4919 227.993,101.492 225.5,108.5C 224.448,108.649 223.448,108.483 222.5,108C 223.634,106.984 223.301,106.317 221.5,106C 222.833,105.667 224.167,105.333 225.5,105C 223.337,104.755 221.67,103.755 220.5,102C 226.837,101.163 226.503,100.497 219.5,100C 220.167,99.6667 220.833,99.3333 221.5,99C 218.833,98.3333 218.833,97.6667 221.5,97C 219.285,96.6124 217.952,95.6124 217.5,94C 218.833,93.6667 220.167,93.3333 221.5,93C 219.497,92.6655 217.83,91.8321 216.5,90.5C 216.149,83.1113 213.815,76.4446 209.5,70.5C 210.766,69.9101 212.099,69.4101 213.5,69C 211.285,68.6124 209.952,67.6124 209.5,66C 214.833,65.3333 214.833,64.6667 209.5,64C 211.878,63.0255 211.544,62.3589 208.5,62C 209.833,61.3333 209.833,60.6667 208.5,60C 209.5,59.6667 210.5,59.3333 211.5,59C 209.285,58.6124 207.952,57.6124 207.5,56C 212.833,55.3333 212.833,54.6667 207.5,54C 208.167,53.6667 208.833,53.3333 209.5,53C 205.5,52.3333 205.5,51.6667 209.5,51C 207.285,50.6124 205.952,49.6124 205.5,48C 210.794,47.1822 210.794,46.6822 205.5,46.5C 205.5,45.5 205.5,44.5 205.5,43.5C 210.468,43.1341 210.134,42.6341 204.5,42C 205.833,41.3333 205.833,40.6667 204.5,40C 211.167,39.3333 211.167,38.6667 204.5,38C 205.634,36.984 205.301,36.3173 203.5,36C 206.167,35.3333 206.167,34.6667 203.5,34C 206.167,33.3333 206.167,32.6667 203.5,32C 205.878,31.0255 205.544,30.3589 202.5,30C 203.833,29.3333 203.833,28.6667 202.5,28C 203.5,27.6667 204.5,27.3333 205.5,27C 203.285,26.6124 201.952,25.6124 201.5,24C 206.794,23.1822 206.794,22.6822 201.5,22.5C 201.5,21.5 201.5,20.5 201.5,19.5C 202.873,19.6567 204.207,19.49 205.5,19C 203.337,18.7547 201.67,17.7547 200.5,16C 207.167,15.3333 207.167,14.6667 200.5,14C 201.833,13.3333 201.833,12.6667 200.5,12C 204.5,11.3333 204.5,10.6667 200.5,10C 201.833,9.33333 201.833,8.66667 200.5,8C 204.185,7.08555 203.852,6.41888 199.5,6C 200.167,5.66667 200.833,5.33333 201.5,5C 198.833,4.33333 198.833,3.66667 201.5,3C 198.833,2.33333 198.833,1.66667 201.5,1C 200.584,0.721579 199.918,0.221579 199.5,-0.5 Z"/></g>
<g><path style="opacity:1" fill="#2d2d2d" d="M 292.5,-0.5 C 319.833,-0.5 347.167,-0.5 374.5,-0.5C 374.5,59.8333 374.5,120.167 374.5,180.5C 372.567,180.271 370.9,179.438 369.5,178C 370.833,177.667 372.167,177.333 373.5,177C 371.5,176.667 369.5,176.333 367.5,176C 368.167,175.667 368.833,175.333 369.5,175C 365.5,174.333 365.5,173.667 369.5,173C 367.833,172.667 366.167,172.333 364.5,172C 364.833,171.667 365.167,171.333 365.5,171C 361.5,170.333 361.5,169.667 365.5,169C 363.226,168.53 361.226,167.53 359.5,166C 360.833,165.667 362.167,165.333 363.5,165C 360.993,164.907 358.826,164.074 357,162.5C 357.272,161.671 358.106,161.171 359.5,161C 357.833,160.667 356.167,160.333 354.5,160C 358.185,159.086 357.852,158.419 353.5,158C 358.508,157.131 358.175,156.464 352.5,156C 352.833,155.667 353.167,155.333 353.5,155C 349.5,154.333 349.5,153.667 353.5,153C 351.226,152.53 349.226,151.53 347.5,150C 352.508,149.131 352.175,148.464 346.5,148C 346.833,147.667 347.167,147.333 347.5,147C 346.5,146.667 345.5,146.333 344.5,146C 348.185,145.086 347.852,144.419 343.5,144C 344.167,143.667 344.833,143.333 345.5,143C 341.5,142.333 341.5,141.667 345.5,141C 343.226,140.53 341.226,139.53 339.5,138C 340.167,137.667 340.833,137.333 341.5,137C 339.285,136.612 337.952,135.612 337.5,134C 342.508,133.131 342.175,132.464 336.5,132C 336.833,131.667 337.167,131.333 337.5,131C 333.5,130.333 333.5,129.667 337.5,129C 335.337,128.755 333.67,127.755 332.5,126C 338.837,125.163 338.503,124.497 331.5,124C 332.167,123.667 332.833,123.333 333.5,123C 329.5,122.333 329.5,121.667 333.5,121C 331.337,120.755 329.67,119.755 328.5,118C 332.185,117.086 331.852,116.419 327.5,116C 328.167,115.667 328.833,115.333 329.5,115C 325.5,114.333 325.5,113.667 329.5,113C 327.337,112.755 325.67,111.755 324.5,110C 325.5,109.667 326.5,109.333 327.5,109C 325.337,108.755 323.67,107.755 322.5,106C 323.5,105.667 324.5,105.333 325.5,105C 323.337,104.755 321.67,103.755 320.5,102C 324.185,101.086 323.852,100.419 319.5,100C 320.167,99.6667 320.833,99.3333 321.5,99C 317.5,98.3333 317.5,97.6667 321.5,97C 319.337,96.7547 317.67,95.7547 316.5,94C 322.837,93.1632 322.503,92.4966 315.5,92C 316.167,91.6667 316.833,91.3333 317.5,91C 313.5,90.3333 313.5,89.6667 317.5,89C 315.285,88.6124 313.952,87.6124 313.5,86C 318.508,85.1307 318.175,84.4641 312.5,84C 312.833,83.6667 313.167,83.3333 313.5,83C 310.833,82.3333 310.833,81.6667 313.5,81C 309.5,80.3333 309.5,79.6667 313.5,79C 309.5,78.3333 309.5,77.6667 313.5,77C 311.337,76.7547 309.67,75.7547 308.5,74C 312.5,73.3333 312.5,72.6667 308.5,72C 309.634,70.984 309.301,70.3173 307.5,70C 309.878,69.0255 309.544,68.3589 306.5,68C 307.833,67.3333 307.833,66.6667 306.5,66C 310.185,65.0855 309.852,64.4189 305.5,64C 307.878,63.0255 307.544,62.3589 304.5,62C 305.833,61.3333 305.833,60.6667 304.5,60C 308.185,59.0855 307.852,58.4189 303.5,58C 304.167,57.6667 304.833,57.3333 305.5,57C 302.833,56.3333 302.833,55.6667 305.5,55C 303.285,54.6124 301.952,53.6124 301.5,52C 302.833,51.6667 304.167,51.3333 305.5,51C 303.337,50.7547 301.67,49.7547 300.5,48C 307.167,47.3333 307.167,46.6667 300.5,46C 301.634,44.984 301.301,44.3173 299.5,44C 302.167,43.3333 302.167,42.6667 299.5,42C 301.878,41.0255 301.544,40.3589 298.5,40C 302.5,39.3333 302.5,38.6667 298.5,38C 299.833,37.3333 299.833,36.6667 298.5,36C 302.185,35.0855 301.852,34.4189 297.5,34C 300.167,33.3333 300.167,32.6667 297.5,32C 302.508,31.1307 302.175,30.4641 296.5,30C 297.833,29.3333 297.833,28.6667 296.5,28C 297.5,27.6667 298.5,27.3333 299.5,27C 297.285,26.6124 295.952,25.6124 295.5,24C 300.833,23.3333 300.833,22.6667 295.5,22C 296.167,21.6667 296.833,21.3333 297.5,21C 294.833,20.3333 294.833,19.6667 297.5,19C 293.5,18.3333 293.5,17.6667 297.5,17C 293.5,16.3333 293.5,15.6667 297.5,15C 295.285,14.6124 293.952,13.6124 293.5,12C 298.833,11.3333 298.833,10.6667 293.5,10C 296.167,9.33333 296.167,8.66667 293.5,8C 294.833,7.66667 296.167,7.33333 297.5,7C 295.337,6.75467 293.67,5.75467 292.5,4C 296.5,3.33333 296.5,2.66667 292.5,2C 293.598,1.23029 293.598,0.396953 292.5,-0.5 Z"/></g>
<g><path style="opacity:1" fill="#161616" d="M -0.5,24.5 C 0.0248731,25.7282 1.35821,26.5616 3.5,27C 2.5,27.3333 1.5,27.6667 0.5,28C 1.83333,28.6667 1.83333,29.3333 0.5,30C 7.16667,30.6667 7.16667,31.3333 0.5,32C 1.83333,32.6667 1.83333,33.3333 0.5,34C 6.13417,34.6341 6.4675,35.1341 1.5,35.5C 1.5,36.5 1.5,37.5 1.5,38.5C 6.79369,38.6822 6.79369,39.1822 1.5,40C 4.16667,40.6667 4.16667,41.3333 1.5,42C 5.85177,42.4189 6.1851,43.0855 2.5,44C 3.83333,44.6667 3.83333,45.3333 2.5,46C 6.5,46.6667 6.5,47.3333 2.5,48C 6.5,48.6667 6.5,49.3333 2.5,50C 5.54426,50.3589 5.87759,51.0255 3.5,52C 6.16667,52.6667 6.16667,53.3333 3.5,54C 8.83333,54.6667 8.83333,55.3333 3.5,56C 6.16667,56.6667 6.16667,57.3333 3.5,58C 7.85177,58.4189 8.1851,59.0855 4.5,60C 4.5,61.3333 4.5,62.6667 4.5,64C 10.1342,64.6341 10.4675,65.1341 5.5,65.5C 5.5,66.5 5.5,67.5 5.5,68.5C 10.7937,68.6822 10.7937,69.1822 5.5,70C 5.95196,71.6124 7.28529,72.6124 9.5,73C 8.5,73.3333 7.5,73.6667 6.5,74C 10.5,74.6667 10.5,75.3333 6.5,76C 9.54426,76.3589 9.87759,77.0255 7.5,78C 10.1667,78.6667 10.1667,79.3333 7.5,80C 12.8333,80.6667 12.8333,81.3333 7.5,82C 9.30077,82.3173 9.63411,82.984 8.5,84C 10.1667,84.3333 11.8333,84.6667 13.5,85C 7.31216,85.548 7.31216,86.8813 13.5,89C 12.1667,89.3333 10.8333,89.6667 9.5,90C 12.1667,90.6667 12.1667,91.3333 9.5,92C 13.8518,92.4189 14.1851,93.0855 10.5,94C 14.5,94.6667 14.5,95.3333 10.5,96C 13.5443,96.3589 13.8776,97.0255 11.5,98C 14.1667,98.6667 14.1667,99.3333 11.5,100C 15.8518,100.419 16.1851,101.086 12.5,102C 13.8333,102.667 13.8333,103.333 12.5,104C 18.1342,104.634 18.4675,105.134 13.5,105.5C 13.5,106.5 13.5,107.5 13.5,108.5C 18.7937,108.682 18.7937,109.182 13.5,110C 17.8518,110.419 18.1851,111.086 14.5,112C 18.5,112.667 18.5,113.333 14.5,114C 17.5443,114.359 17.8776,115.026 15.5,116C 20.8333,116.667 20.8333,117.333 15.5,118C 15.952,119.612 17.2853,120.612 19.5,121C 17.1167,121.065 16.45,121.898 17.5,123.5C 22.7208,124.624 22.7208,125.458 17.5,126C 17.952,127.612 19.2853,128.612 21.5,129C 20.8333,129.333 20.1667,129.667 19.5,130C 22.1667,130.667 22.1667,131.333 19.5,132C 23.8518,132.419 24.1851,133.086 20.5,134C 21.8333,134.667 21.8333,135.333 20.5,136C 26.1342,136.634 26.4675,137.134 21.5,137.5C 21.5,138.5 21.5,139.5 21.5,140.5C 25.8926,140.457 26.2259,140.957 22.5,142C 25.5443,142.359 25.8776,143.026 23.5,144C 26.1667,144.667 26.1667,145.333 23.5,146C 25.3008,146.317 25.6341,146.984 24.5,148C 31.1667,148.667 31.1667,149.333 24.5,150C 27.5443,150.359 27.8776,151.026 25.5,152C 29.8518,152.419 30.1851,153.086 26.5,154C 27.8333,154.667 27.8333,155.333 26.5,156C 29.5443,156.359 29.8776,157.026 27.5,158C 29.3008,158.317 29.6341,158.984 28.5,160C 32.5,160.667 32.5,161.333 28.5,162C 29.67,163.755 31.3367,164.755 33.5,165C 32.5,165.333 31.5,165.667 30.5,166C 34.5,166.667 34.5,167.333 30.5,168C 33.5443,168.359 33.8776,169.026 31.5,170C 33.3008,170.317 33.6341,170.984 32.5,172C 39.1667,172.667 39.1667,173.333 32.5,174C 35.5443,174.359 35.8776,175.026 33.5,176C 34.8333,176.333 36.1667,176.667 37.5,177C 35.1167,177.065 34.45,177.898 35.5,179.5C 40.7208,180.624 40.7208,181.458 35.5,182C 37.3008,182.317 37.6341,182.984 36.5,184C 38.1667,184.333 39.8333,184.667 41.5,185C 36.3718,186.105 36.3718,187.438 41.5,189C 40.5,189.333 39.5,189.667 38.5,190C 41.5443,190.359 41.8776,191.026 39.5,192C 43.8518,192.419 44.1851,193.086 40.5,194C 41.67,195.755 43.3367,196.755 45.5,197C 44.5,197.333 43.5,197.667 42.5,198C 46.5,198.667 46.5,199.333 42.5,200C 45.5443,200.359 45.8776,201.026 43.5,202C 45.3008,202.317 45.6341,202.984 44.5,204C 50.1748,204.464 50.5081,205.131 45.5,206C 45.952,207.612 47.2853,208.612 49.5,209C 48.8333,209.333 48.1667,209.667 47.5,210C 50.1667,210.667 50.1667,211.333 47.5,212C 54.5032,212.497 54.8365,213.163 48.5,214C 51.5443,214.359 51.8776,215.026 49.5,216C 53.8518,216.419 54.1851,217.086 50.5,218C 53.5443,218.359 53.8776,219.026 51.5,220C 55.8518,220.419 56.1851,221.086 52.5,222C 53.67,223.755 55.3367,224.755 57.5,225C 56.5,225.333 55.5,225.667 54.5,226C 57.5443,226.359 57.8776,227.026 55.5,228C 56.8333,228.333 58.1667,228.667 59.5,229C 57.1167,229.065 56.45,229.898 57.5,231.5C 62.7208,232.624 62.7208,233.458 57.5,234C 59.3008,234.317 59.6341,234.984 58.5,236C 64.1748,236.464 64.5081,237.131 59.5,238C 61.3008,238.317 61.6341,238.984 60.5,240C 66.1748,240.464 66.5081,241.131 61.5,242C 63.3008,242.317 63.6341,242.984 62.5,244C 68.1748,244.464 68.5081,245.131 63.5,246C 65.3008,246.317 65.6341,246.984 64.5,248C 70.1748,248.464 70.5081,249.131 65.5,250C 67.2262,251.53 69.2262,252.53 71.5,253C 70.5,253.333 69.5,253.667 68.5,254C 69.67,255.755 71.3367,256.755 73.5,257C 72.5,257.333 71.5,257.667 70.5,258C 73.5443,258.359 73.8776,259.026 71.5,260C 75.8518,260.419 76.1851,261.086 72.5,262C 73.67,263.755 75.3367,264.755 77.5,265C 76.5,265.333 75.5,265.667 74.5,266C 77.5443,266.359 77.8776,267.026 75.5,268C 82.5032,268.497 82.8365,269.163 76.5,270C 79.5443,270.359 79.8776,271.026 77.5,272C 78.8333,272.333 80.1667,272.667 81.5,273C 80.8333,273.333 80.1667,273.667 79.5,274C 79.7638,275.742 81.0972,276.909 83.5,277.5C 72.8087,307.567 79.142,333.401 102.5,355C 115.619,365.554 130.619,370.387 147.5,369.5C 149.292,370.309 151.292,370.809 153.5,371C 148.167,371.667 148.167,372.333 153.5,373C 152.833,373.333 152.167,373.667 151.5,374C 153.5,374.333 155.5,374.667 157.5,375C 156.167,375.333 154.833,375.667 153.5,376C 155.301,376.317 155.634,376.984 154.5,378C 156.833,378.333 159.167,378.667 161.5,379C 159.833,379.333 158.167,379.667 156.5,380C 157.5,380.333 158.5,380.667 159.5,381C 159.167,381.333 158.833,381.667 158.5,382C 160.167,382.333 161.833,382.667 163.5,383C 162.5,383.333 161.5,383.667 160.5,384C 163.044,386.093 166.044,387.093 169.5,387C 167.833,387.333 166.167,387.667 164.5,388C 166.337,389.952 168.671,390.952 171.5,391C 170.167,391.333 168.833,391.667 167.5,392C 170.51,393.921 173.844,394.921 177.5,395C 169.942,395.283 169.942,396.616 177.5,399C 176.833,399.333 176.167,399.667 175.5,400C 178.51,401.921 181.844,402.921 185.5,403C 183.5,403.333 181.5,403.667 179.5,404C 181.845,405.783 184.512,406.783 187.5,407C 186.167,407.333 184.833,407.667 183.5,408C 186.51,409.921 189.844,410.921 193.5,411C 191.833,411.333 190.167,411.667 188.5,412C 190.359,413.981 192.692,414.981 195.5,415C 194.234,415.309 193.067,415.809 192,416.5C 191.308,417.437 191.475,418.103 192.5,418.5C 189.959,426.369 187.959,426.035 186.5,417.5C 185.325,417.281 184.325,417.614 183.5,418.5C 185.244,422.246 187.077,425.912 189,429.5C 190.942,425.808 192.776,422.142 194.5,418.5C 196.167,418.5 197.833,418.5 199.5,418.5C 199.789,422.106 199.456,425.606 198.5,429C 201.482,429.498 204.482,429.665 207.5,429.5C 209.292,430.309 211.292,430.809 213.5,431C 209.5,431.667 209.5,432.333 213.5,433C 213.167,433.333 212.833,433.667 212.5,434C 214.833,434.333 217.167,434.667 219.5,435C 217.833,435.333 216.167,435.667 214.5,436C 216.714,437.273 219.047,438.273 221.5,439C 220.833,439.333 220.167,439.667 219.5,440C 222.475,442.004 225.808,443.004 229.5,443C 227.833,443.333 226.167,443.667 224.5,444C 226.759,445.469 229.759,446.469 233.5,447C 232.167,447.333 230.833,447.667 229.5,448C 231.448,449.618 234.114,450.618 237.5,451C 236.5,451.333 235.5,451.667 234.5,452C 237.292,453.597 240.292,454.597 243.5,455C 242.5,455.333 241.5,455.667 240.5,456C 243.044,458.093 246.044,459.093 249.5,459C 248.167,459.333 246.833,459.667 245.5,460C 247.448,461.618 250.114,462.618 253.5,463C 252.5,463.333 251.5,463.667 250.5,464C 253.936,465.776 257.603,466.776 261.5,467C 259.833,467.333 258.167,467.667 256.5,468C 258.759,469.469 261.759,470.469 265.5,471C 264.5,471.333 263.5,471.667 262.5,472C 265.936,473.776 269.603,474.776 273.5,475C 271.833,475.333 270.167,475.667 268.5,476C 270.759,477.469 273.759,478.469 277.5,479C 276.5,479.333 275.5,479.667 274.5,480C 277.936,481.776 281.603,482.776 285.5,483C 283.833,483.333 282.167,483.667 280.5,484C 282.759,485.469 285.759,486.469 289.5,487C 288.5,487.333 287.5,487.667 286.5,488C 288.32,488.2 289.653,489.034 290.5,490.5C 238.833,490.5 187.167,490.5 135.5,490.5C 135.918,489.778 136.584,489.278 137.5,489C 132.167,488.333 132.167,487.667 137.5,487C 135.5,486.667 133.5,486.333 131.5,486C 132.167,485.667 132.833,485.333 133.5,485C 128.167,484.333 128.167,483.667 133.5,483C 131.5,482.667 129.5,482.333 127.5,482C 128.167,481.667 128.833,481.333 129.5,481C 124.167,480.333 124.167,479.667 129.5,479C 127.167,478.667 124.833,478.333 122.5,478C 123.5,477.667 124.5,477.333 125.5,477C 118.833,476.333 118.833,475.667 125.5,475C 122.044,475.093 119.044,474.093 116.5,472C 118.167,471.667 119.833,471.333 121.5,471C 119.167,470.667 116.833,470.333 114.5,470C 114.833,469.667 115.167,469.333 115.5,469C 114.5,468.667 113.5,468.333 112.5,468C 114.167,467.667 115.833,467.333 117.5,467C 114.044,467.093 111.044,466.093 108.5,464C 110.167,463.667 111.833,463.333 113.5,463C 111.167,462.667 108.833,462.333 106.5,462C 106.833,461.667 107.167,461.333 107.5,461C 106.5,460.667 105.5,460.333 104.5,460C 106.167,459.667 107.833,459.333 109.5,459C 106.044,459.093 103.044,458.093 100.5,456C 102.167,455.667 103.833,455.333 105.5,455C 103.167,454.667 100.833,454.333 98.5,454C 102.185,453.086 101.852,452.419 97.5,452C 98.8333,451.667 100.167,451.333 101.5,451C 99.5,450.667 97.5,450.333 95.5,450C 96.1667,449.667 96.8333,449.333 97.5,449C 92.1667,448.333 92.1667,447.667 97.5,447C 95.5,446.667 93.5,446.333 91.5,446C 92.1667,445.667 92.8333,445.333 93.5,445C 88.1667,444.333 88.1667,443.667 93.5,443C 91.5,442.667 89.5,442.333 87.5,442C 88.1667,441.667 88.8333,441.333 89.5,441C 84.1667,440.333 84.1667,439.667 89.5,439C 87.8333,438.667 86.1667,438.333 84.5,438C 84.8333,437.667 85.1667,437.333 85.5,437C 81.5,436.333 81.5,435.667 85.5,435C 83.8333,434.667 82.1667,434.333 80.5,434C 80.8333,433.667 81.1667,433.333 81.5,433C 77.5,432.333 77.5,431.667 81.5,431C 79.2262,430.53 77.2262,429.53 75.5,428C 76.1667,427.667 76.8333,427.333 77.5,427C 75.2262,426.53 73.2262,425.53 71.5,424C 76.5081,423.131 76.1748,422.464 70.5,422C 70.8333,421.667 71.1667,421.333 71.5,421C 70.5,420.667 69.5,420.333 68.5,420C 70.1667,419.667 71.8333,419.333 73.5,419C 71.1667,418.667 68.8333,418.333 66.5,418C 67.6341,416.984 67.3008,416.317 65.5,416C 66.8333,415.667 68.1667,415.333 69.5,415C 67.5,414.667 65.5,414.333 63.5,414C 64.1667,413.667 64.8333,413.333 65.5,413C 60.1667,412.333 60.1667,411.667 65.5,411C 63.8333,410.667 62.1667,410.333 60.5,410C 60.8333,409.667 61.1667,409.333 61.5,409C 57.5,408.333 57.5,407.667 61.5,407C 59.2262,406.53 57.2262,405.53 55.5,404C 60.5081,403.131 60.1748,402.464 54.5,402C 51.7236,400.221 52.0569,399.221 55.5,399C 53.8333,398.667 52.1667,398.333 50.5,398C 54.1851,397.086 53.8518,396.419 49.5,396C 50.8333,395.667 52.1667,395.333 53.5,395C 51.5,394.667 49.5,394.333 47.5,394C 49.8776,393.026 49.5443,392.359 46.5,392C 47.5,391.667 48.5,391.333 49.5,391C 47.8333,390.667 46.1667,390.333 44.5,390C 45.6341,388.984 45.3008,388.317 43.5,388C 44.1667,387.667 44.8333,387.333 45.5,387C 43.3367,386.755 41.67,385.755 40.5,384C 41.5,383.667 42.5,383.333 43.5,383C 41.8333,382.667 40.1667,382.333 38.5,382C 42.1851,381.086 41.8518,380.419 37.5,380C 42.5081,379.131 42.1748,378.464 36.5,378C 36.8333,377.667 37.1667,377.333 37.5,377C 33.5,376.333 33.5,375.667 37.5,375C 35.2262,374.53 33.2262,373.53 31.5,372C 32.8333,371.667 34.1667,371.333 35.5,371C 33.567,370.749 31.7337,370.249 30,369.5C 29.8333,369.167 29.6667,368.833 29.5,368.5C 30.7287,367.719 32.062,367.219 33.5,367C 31.5,366.667 29.5,366.333 27.5,366C 29.8776,365.026 29.5443,364.359 26.5,364C 27.5,363.667 28.5,363.333 29.5,363C 27.8333,362.667 26.1667,362.333 24.5,362C 25.6341,360.984 25.3008,360.317 23.5,360C 24.1667,359.667 24.8333,359.333 25.5,359C 23.8333,358 22.1667,357 20.5,356C 26.8365,355.163 26.5032,354.497 19.5,354C 21.8776,353.026 21.5443,352.359 18.5,352C 19.5,351.667 20.5,351.333 21.5,351C 19.2262,350.53 17.2262,349.53 15.5,348C 16.8333,347.667 18.1667,347.333 19.5,347C 17.0588,346.964 15.0588,346.131 13.5,344.5C 14.7287,343.719 16.062,343.219 17.5,343C 15.5,342.667 13.5,342.333 11.5,342C 13.8776,341.026 13.5443,340.359 10.5,340C 11.5,339.667 12.5,339.333 13.5,339C 11.3367,338.755 9.67003,337.755 8.5,336C 9.5,335.667 10.5,335.333 11.5,335C 9.83333,334.667 8.16667,334.333 6.5,334C 10.1851,333.086 9.85177,332.419 5.5,332C 10.5081,331.131 10.1748,330.464 4.5,330C 5.63411,328.984 5.30077,328.317 3.5,328C 4.16667,327.667 4.83333,327.333 5.5,327C 3.28529,326.612 1.95196,325.612 1.5,324C 2.83333,323.667 4.16667,323.333 5.5,323C 3.5273,322.505 1.5273,322.338 -0.5,322.5C -0.5,223.167 -0.5,123.833 -0.5,24.5 Z"/></g>
<g><path style="opacity:1" fill="#fbfbfb" d="M 209.5,70.5 C 213.815,76.4446 216.149,83.1113 216.5,90.5C 215.844,97.2994 213.678,103.633 210,109.5C 202.333,119.167 194.667,128.833 187,138.5C 180.461,147.114 177.794,156.781 179,167.5C 183.095,176.271 188.761,183.938 196,190.5C 196.688,191.332 196.521,191.998 195.5,192.5C 183.137,188.631 171.804,182.797 161.5,175C 148.64,164.477 145.473,151.644 152,136.5C 154.95,131.882 158.284,127.548 162,123.5C 174.122,113.715 184.455,102.382 193,89.5C 198.252,74.5954 195.752,61.2621 185.5,49.5C 186.002,48.479 186.668,48.3123 187.5,49C 195.572,55.5119 202.905,62.6785 209.5,70.5 Z"/></g>
<g><path style="opacity:1" fill="#f6f6f6" d="M 230.5,129.5 C 228.289,134.544 225.456,139.211 222,143.5C 215.968,149.198 210.301,155.198 205,161.5C 201.201,167.249 199.534,173.582 200,180.5C 192.052,170.042 191.385,159.042 198,147.5C 204.571,137.593 211.904,128.259 220,119.5C 222.372,116.09 224.205,112.423 225.5,108.5C 227.993,101.492 228.16,94.4919 226,87.5C 229.393,91.6192 231.726,96.2858 233,101.5C 234.174,111.054 233.341,120.387 230.5,129.5 Z"/></g>
<g><path style="opacity:1" fill="#f7f7f7" d="M 241.5,154.5 C 239.9,162.195 235.9,168.361 229.5,173C 220.876,176.809 213.543,182.309 207.5,189.5C 205.964,184.764 206.798,180.431 210,176.5C 217.67,169.163 225.004,161.496 232,153.5C 234.744,148.522 235.911,143.189 235.5,137.5C 235.369,136.761 235.536,136.094 236,135.5C 239.969,141.237 241.802,147.57 241.5,154.5 Z"/></g>
<g><path style="opacity:1" fill="#fbfbfb" d="M 147.5,369.5 C 130.619,370.387 115.619,365.554 102.5,355C 79.142,333.401 72.8087,307.567 83.5,277.5C 93.3391,258.503 108.672,246.336 129.5,241C 152.077,236.889 171.577,242.722 188,258.5C 188.667,259.833 188.667,261.167 188,262.5C 183.533,267.968 178.7,273.135 173.5,278C 172.5,278.667 171.5,278.667 170.5,278C 159.86,269.803 147.86,266.803 134.5,269C 113.279,277.568 105.113,293.068 110,315.5C 120.227,338.808 137.394,345.975 161.5,337C 164.765,334.451 168.265,332.284 172,330.5C 177.768,335.341 183.101,340.674 188,346.5C 188.667,347.833 188.667,349.167 188,350.5C 176.748,361.542 163.248,367.875 147.5,369.5 Z"/></g>
<g><path style="opacity:1" fill="#fdfdfd" d="M 214.5,241.5 C 246.502,241.333 278.502,241.5 310.5,242C 311.456,245.394 311.789,248.894 311.5,252.5C 311.666,256.846 311.499,261.179 311,265.5C 310.617,266.056 310.117,266.389 309.5,266.5C 298.5,266.5 287.5,266.5 276.5,266.5C 276.5,299.167 276.5,331.833 276.5,364.5C 276.047,365.458 275.381,366.292 274.5,367C 266.167,367.667 257.833,367.667 249.5,367C 248.619,366.292 247.953,365.458 247.5,364.5C 247.5,331.833 247.5,299.167 247.5,266.5C 236.5,266.5 225.5,266.5 214.5,266.5C 213.883,266.389 213.383,266.056 213,265.5C 212.833,261.5 212.667,257.5 212.5,253.5C 212.509,249.107 213.176,245.107 214.5,241.5 Z"/></g>
<g><path style="opacity:1" fill="#222222" d="M 311.5,252.5 C 313.527,252.338 315.527,252.505 317.5,253C 312.167,253.667 312.167,254.333 317.5,255C 316.833,255.333 316.167,255.667 315.5,256C 317.5,256.333 319.5,256.667 321.5,257C 316.167,257.667 316.167,258.333 321.5,259C 320.833,259.333 320.167,259.667 319.5,260C 321.5,260.333 323.5,260.667 325.5,261C 320.167,261.667 320.167,262.333 325.5,263C 324.833,263.333 324.167,263.667 323.5,264C 325.5,264.333 327.5,264.667 329.5,265C 328.167,265.333 326.833,265.667 325.5,266C 327.448,267.618 330.114,268.618 333.5,269C 329.5,269.667 329.5,270.333 333.5,271C 333.167,271.333 332.833,271.667 332.5,272C 334.167,272.333 335.833,272.667 337.5,273C 333.5,273.667 333.5,274.333 337.5,275C 337.167,275.333 336.833,275.667 336.5,276C 338.167,276.333 339.833,276.667 341.5,277C 340.833,277.333 340.167,277.667 339.5,278C 341.845,279.783 344.512,280.783 347.5,281C 346.167,281.333 344.833,281.667 343.5,282C 346.475,284.004 349.808,285.004 353.5,285C 351.833,285.333 350.167,285.667 348.5,286C 350.759,287.469 353.759,288.469 357.5,289C 356.167,289.333 354.833,289.667 353.5,290C 355.448,291.618 358.114,292.618 361.5,293C 360.5,293.333 359.5,293.667 358.5,294C 361.936,295.776 365.603,296.776 369.5,297C 367.833,297.333 366.167,297.667 364.5,298C 367.044,300.093 370.044,301.093 373.5,301C 372.167,301.333 370.833,301.667 369.5,302C 372.289,302.125 373.955,302.958 374.5,304.5C 374.5,339.833 374.5,375.167 374.5,410.5C 372.143,410.663 369.81,410.497 367.5,410C 368.167,409.667 368.833,409.333 369.5,409C 362.833,408.333 362.833,407.667 369.5,407C 366.5,406.667 363.5,406.333 360.5,406C 360.833,405.667 361.167,405.333 361.5,405C 356.167,404.333 356.167,403.667 361.5,403C 357.603,402.776 353.936,401.776 350.5,400C 351.5,399.667 352.5,399.333 353.5,399C 351.167,398.667 348.833,398.333 346.5,398C 347.5,397.667 348.5,397.333 349.5,397C 341.5,396.333 341.5,395.667 349.5,395C 346.5,394.667 343.5,394.333 340.5,394C 340.833,393.667 341.167,393.333 341.5,393C 336.167,392.333 336.167,391.667 341.5,391C 337.808,391.004 334.475,390.004 331.5,388C 333.5,387.667 335.5,387.333 337.5,387C 334.5,386.667 331.5,386.333 328.5,386C 328.833,385.667 329.167,385.333 329.5,385C 324.167,384.333 324.167,383.667 329.5,383C 327.167,382.667 324.833,382.333 322.5,382C 322.833,381.667 323.167,381.333 323.5,381C 318.167,380.333 318.167,379.667 323.5,379C 321.167,378.667 318.833,378.333 316.5,378C 316.833,377.667 317.167,377.333 317.5,377C 312.167,376.333 312.167,375.667 317.5,375C 315.167,374.667 312.833,374.333 310.5,374C 311.5,373.667 312.5,373.333 313.5,373C 306.833,372.333 306.833,371.667 313.5,371C 309.603,370.776 305.936,369.776 302.5,368C 303.5,367.667 304.5,367.333 305.5,367C 302.114,366.618 299.448,365.618 297.5,364C 298.833,363.667 300.167,363.333 301.5,363C 297.759,362.469 294.759,361.469 292.5,360C 294.167,359.667 295.833,359.333 297.5,359C 295.167,358.667 292.833,358.333 290.5,358C 290.833,357.667 291.167,357.333 291.5,357C 290.167,356.667 288.833,356.333 287.5,356C 289.5,355.667 291.5,355.333 293.5,355C 290.774,354.818 288.107,354.318 285.5,353.5C 283.009,352.459 283.009,351.626 285.5,351C 283.833,350.667 282.167,350.333 280.5,350C 280.833,349.667 281.167,349.333 281.5,349C 280.5,348.667 279.5,348.333 278.5,348C 282.226,346.957 281.893,346.457 277.5,346.5C 277.5,320.167 277.5,293.833 277.5,267.5C 288.346,267.828 299.013,267.494 309.5,266.5C 310.117,266.389 310.617,266.056 311,265.5C 311.499,261.179 311.666,256.846 311.5,252.5 Z"/></g>
<g><path style="opacity:1" fill="#5a5a5a" d="M 214.5,266.5 C 225.5,266.5 236.5,266.5 247.5,266.5C 247.5,299.167 247.5,331.833 247.5,364.5C 246.504,348.675 246.17,332.675 246.5,316.5C 246.5,300.167 246.5,283.833 246.5,267.5C 235.654,267.828 224.987,267.494 214.5,266.5 Z"/></g>
<g><path style="opacity:1" fill="#484848" d="M 309.5,266.5 C 299.013,267.494 288.346,267.828 277.5,267.5C 277.5,293.833 277.5,320.167 277.5,346.5C 277.823,352.69 277.49,358.69 276.5,364.5C 276.5,331.833 276.5,299.167 276.5,266.5C 287.5,266.5 298.5,266.5 309.5,266.5 Z"/></g>
<g><path style="opacity:1" fill="#101010" d="M -0.5,322.5 C 1.5273,322.338 3.5273,322.505 5.5,323C 4.16667,323.333 2.83333,323.667 1.5,324C 1.95196,325.612 3.28529,326.612 5.5,327C 4.83333,327.333 4.16667,327.667 3.5,328C 5.30077,328.317 5.63411,328.984 4.5,330C 10.1748,330.464 10.5081,331.131 5.5,332C 9.85177,332.419 10.1851,333.086 6.5,334C 8.16667,334.333 9.83333,334.667 11.5,335C 10.5,335.333 9.5,335.667 8.5,336C 9.67003,337.755 11.3367,338.755 13.5,339C 12.5,339.333 11.5,339.667 10.5,340C 13.5443,340.359 13.8776,341.026 11.5,342C 13.5,342.333 15.5,342.667 17.5,343C 16.062,343.219 14.7287,343.719 13.5,344.5C 15.0588,346.131 17.0588,346.964 19.5,347C 18.1667,347.333 16.8333,347.667 15.5,348C 17.2262,349.53 19.2262,350.53 21.5,351C 20.5,351.333 19.5,351.667 18.5,352C 21.5443,352.359 21.8776,353.026 19.5,354C 26.5032,354.497 26.8365,355.163 20.5,356C 22.1667,357 23.8333,358 25.5,359C 24.8333,359.333 24.1667,359.667 23.5,360C 25.3008,360.317 25.6341,360.984 24.5,362C 26.1667,362.333 27.8333,362.667 29.5,363C 28.5,363.333 27.5,363.667 26.5,364C 29.5443,364.359 29.8776,365.026 27.5,366C 29.5,366.333 31.5,366.667 33.5,367C 32.062,367.219 30.7287,367.719 29.5,368.5C 29.6667,368.833 29.8333,369.167 30,369.5C 31.7337,370.249 33.567,370.749 35.5,371C 34.1667,371.333 32.8333,371.667 31.5,372C 33.2262,373.53 35.2262,374.53 37.5,375C 33.5,375.667 33.5,376.333 37.5,377C 37.1667,377.333 36.8333,377.667 36.5,378C 42.1748,378.464 42.5081,379.131 37.5,380C 41.8518,380.419 42.1851,381.086 38.5,382C 40.1667,382.333 41.8333,382.667 43.5,383C 42.5,383.333 41.5,383.667 40.5,384C 41.67,385.755 43.3367,386.755 45.5,387C 44.8333,387.333 44.1667,387.667 43.5,388C 45.3008,388.317 45.6341,388.984 44.5,390C 46.1667,390.333 47.8333,390.667 49.5,391C 48.5,391.333 47.5,391.667 46.5,392C 49.5443,392.359 49.8776,393.026 47.5,394C 49.5,394.333 51.5,394.667 53.5,395C 52.1667,395.333 50.8333,395.667 49.5,396C 53.8518,396.419 54.1851,397.086 50.5,398C 52.1667,398.333 53.8333,398.667 55.5,399C 52.0569,399.221 51.7236,400.221 54.5,402C 60.1748,402.464 60.5081,403.131 55.5,404C 57.2262,405.53 59.2262,406.53 61.5,407C 57.5,407.667 57.5,408.333 61.5,409C 61.1667,409.333 60.8333,409.667 60.5,410C 62.1667,410.333 63.8333,410.667 65.5,411C 60.1667,411.667 60.1667,412.333 65.5,413C 64.8333,413.333 64.1667,413.667 63.5,414C 65.5,414.333 67.5,414.667 69.5,415C 68.1667,415.333 66.8333,415.667 65.5,416C 67.3008,416.317 67.6341,416.984 66.5,418C 68.8333,418.333 71.1667,418.667 73.5,419C 71.8333,419.333 70.1667,419.667 68.5,420C 69.5,420.333 70.5,420.667 71.5,421C 71.1667,421.333 70.8333,421.667 70.5,422C 76.1748,422.464 76.5081,423.131 71.5,424C 73.2262,425.53 75.2262,426.53 77.5,427C 76.8333,427.333 76.1667,427.667 75.5,428C 77.2262,429.53 79.2262,430.53 81.5,431C 77.5,431.667 77.5,432.333 81.5,433C 81.1667,433.333 80.8333,433.667 80.5,434C 82.1667,434.333 83.8333,434.667 85.5,435C 81.5,435.667 81.5,436.333 85.5,437C 85.1667,437.333 84.8333,437.667 84.5,438C 86.1667,438.333 87.8333,438.667 89.5,439C 84.1667,439.667 84.1667,440.333 89.5,441C 88.8333,441.333 88.1667,441.667 87.5,442C 89.5,442.333 91.5,442.667 93.5,443C 88.1667,443.667 88.1667,444.333 93.5,445C 92.8333,445.333 92.1667,445.667 91.5,446C 93.5,446.333 95.5,446.667 97.5,447C 92.1667,447.667 92.1667,448.333 97.5,449C 96.8333,449.333 96.1667,449.667 95.5,450C 97.5,450.333 99.5,450.667 101.5,451C 100.167,451.333 98.8333,451.667 97.5,452C 101.852,452.419 102.185,453.086 98.5,454C 100.833,454.333 103.167,454.667 105.5,455C 103.833,455.333 102.167,455.667 100.5,456C 103.044,458.093 106.044,459.093 109.5,459C 107.833,459.333 106.167,459.667 104.5,460C 105.5,460.333 106.5,460.667 107.5,461C 107.167,461.333 106.833,461.667 106.5,462C 108.833,462.333 111.167,462.667 113.5,463C 111.833,463.333 110.167,463.667 108.5,464C 111.044,466.093 114.044,467.093 117.5,467C 115.833,467.333 114.167,467.667 112.5,468C 113.5,468.333 114.5,468.667 115.5,469C 115.167,469.333 114.833,469.667 114.5,470C 116.833,470.333 119.167,470.667 121.5,471C 119.833,471.333 118.167,471.667 116.5,472C 119.044,474.093 122.044,475.093 125.5,475C 118.833,475.667 118.833,476.333 125.5,477C 124.5,477.333 123.5,477.667 122.5,478C 124.833,478.333 127.167,478.667 129.5,479C 124.167,479.667 124.167,480.333 129.5,481C 128.833,481.333 128.167,481.667 127.5,482C 129.5,482.333 131.5,482.667 133.5,483C 128.167,483.667 128.167,484.333 133.5,485C 132.833,485.333 132.167,485.667 131.5,486C 133.5,486.333 135.5,486.667 137.5,487C 132.167,487.667 132.167,488.333 137.5,489C 136.584,489.278 135.918,489.778 135.5,490.5C 90.1667,490.5 44.8333,490.5 -0.5,490.5C -0.5,434.5 -0.5,378.5 -0.5,322.5 Z"/></g>
<g><path style="opacity:1" fill="#999999" d="M 166.5,418.5 C 165.833,417.167 165.167,417.167 164.5,418.5C 163.07,418.421 161.736,418.754 160.5,419.5C 159.289,418.726 159.289,417.893 160.5,417C 164.152,416.501 167.818,416.335 171.5,416.5C 171.719,417.675 171.386,418.675 170.5,419.5C 169.264,418.754 167.93,418.421 166.5,418.5 Z"/></g>
<g><path style="opacity:1" fill="#dbdbdb" d="M 131.5,418.5 C 140.393,418.053 141.393,418.053 134.5,418.5C 134.5,419.833 134.5,421.167 134.5,422.5C 136.446,422.193 138.113,422.193 139.5,422.5C 139.192,423.308 138.692,423.975 138,424.5C 136.989,423.663 135.822,423.33 134.5,423.5C 134.549,428.799 136.715,429.799 141,426.5C 141.667,427.167 141.667,427.833 141,428.5C 137.591,429.622 134.091,429.789 130.5,429C 131.72,427.475 132.387,425.641 132.5,423.5C 132.493,421.631 132.16,419.964 131.5,418.5 Z"/></g>
<g><path style="opacity:1" fill="#efefef" d="M 166.5,418.5 C 165.971,422.351 166.638,425.851 168.5,429C 166.5,429.667 164.5,429.667 162.5,429C 164.362,425.851 165.029,422.351 164.5,418.5C 165.167,417.167 165.833,417.167 166.5,418.5 Z"/></g>
<g><path style="opacity:1" fill="#d4d4d4" d="M 207.5,429.5 C 204.482,429.665 201.482,429.498 198.5,429C 199.456,425.606 199.789,422.106 199.5,418.5C 207.228,418.043 208.228,418.043 202.5,418.5C 202.5,419.833 202.5,421.167 202.5,422.5C 203.978,422.238 205.311,422.571 206.5,423.5C 205.609,424.59 204.609,424.59 203.5,423.5C 202.548,425.045 202.215,426.712 202.5,428.5C 204.722,428.822 206.556,428.155 208,426.5C 208.47,427.577 208.303,428.577 207.5,429.5 Z"/></g>
<g><path style="opacity:1" fill="#e4e4e4" d="M 260.5,418.5 C 261.601,417.402 262.934,417.235 264.5,418C 263.39,420.737 263.223,423.571 264,426.5C 266,429.167 268,429.167 270,426.5C 270.334,423.234 270.501,420.234 270.5,417.5C 271.657,420.784 271.824,424.118 271,427.5C 268,430.167 265,430.167 262,427.5C 261.819,424.305 261.319,421.305 260.5,418.5 Z"/></g>
<g><path style="opacity:1" fill="#e1e1e1" d="M 276.5,418.5 C 277.601,417.402 278.934,417.235 280.5,418C 279.383,421.073 279.216,424.24 280,427.5C 283.716,429.045 285.549,427.712 285.5,423.5C 285.954,420.776 284.954,418.943 282.5,418C 288.481,418.713 289.981,421.88 287,427.5C 283.405,429.456 279.572,429.956 275.5,429C 276.72,427.475 277.387,425.641 277.5,423.5C 277.493,421.631 277.16,419.964 276.5,418.5 Z"/></g>
<g><path style="opacity:1" fill="#b6b6b6" d="M 175.5,417.5 C 176.5,417.5 177.5,417.5 178.5,417.5C 178.207,421.437 178.54,425.27 179.5,429C 177.833,429.667 176.167,429.667 174.5,429C 175.46,425.27 175.793,421.437 175.5,417.5 Z"/></g>
<g><path style="opacity:1" fill="#d3d3d3" d="M 106.5,416.5 C 108.665,416.116 110.332,416.783 111.5,418.5C 109.761,418.594 107.761,418.761 105.5,419C 102.966,421.587 102.966,424.253 105.5,427C 107.5,427.333 109.5,427.667 111.5,428C 107.523,430.337 104.357,429.504 102,425.5C 101.377,421.412 102.877,418.412 106.5,416.5 Z"/></g>
<g><path style="opacity:1" fill="#dfdfdf" d="M 248.5,416.5 C 255.088,416.657 257.588,419.99 256,426.5C 252.333,430.5 248.667,430.5 245,426.5C 243.581,422.082 244.748,418.749 248.5,416.5 Z"/></g>
<g><path style="opacity:1" fill="#1f1f1f" d="M 247.5,418.5 C 252.039,417.539 254.372,419.373 254.5,424C 253.026,429.266 250.526,429.766 247,425.5C 246.297,423.071 246.463,420.738 247.5,418.5 Z"/></g>
<g><path style="opacity:1" fill="#cacaca" d="M 192.5,418.5 C 193.167,417.167 193.833,417.167 194.5,418.5C 192.776,422.142 190.942,425.808 189,429.5C 187.077,425.912 185.244,422.246 183.5,418.5C 184.325,417.614 185.325,417.281 186.5,417.5C 187.959,426.035 189.959,426.369 192.5,418.5 Z"/></g>
<g><path style="opacity:1" fill="#cccccc" d="M 149.5,417.5 C 150.496,417.414 151.329,417.748 152,418.5C 153.202,422.407 155.035,425.907 157.5,429C 155.833,429.667 154.167,429.667 152.5,429C 152.957,428.586 153.291,428.086 153.5,427.5C 151.5,426.167 149.5,426.167 147.5,427.5C 147.709,428.086 148.043,428.586 148.5,429C 147.167,429.667 145.833,429.667 144.5,429C 146.858,425.452 148.525,421.619 149.5,417.5 Z"/></g>
<g><path style="opacity:1" fill="#252525" d="M 149.5,420.5 C 151.104,421.287 151.771,422.62 151.5,424.5C 150.448,424.649 149.448,424.483 148.5,424C 149.337,422.989 149.67,421.822 149.5,420.5 Z"/></g>
<g><path style="opacity:1" fill="#cfcfcf" d="M 221.5,416.5 C 223.827,416.247 225.827,416.914 227.5,418.5C 225.071,418.421 222.571,418.755 220,419.5C 218.533,425.704 221.033,428.538 227.5,428C 219.923,431.09 216.756,428.59 218,420.5C 218.69,418.65 219.856,417.316 221.5,416.5 Z"/></g>
<g><path style="opacity:1" fill="#d0d0d0" d="M 116.5,417.5 C 119.187,417.336 121.854,417.503 124.5,418C 125.772,420.044 125.439,421.878 123.5,423.5C 125.01,425.509 126.677,427.342 128.5,429C 127.5,429.667 126.5,429.667 125.5,429C 123.983,427.315 122.316,425.815 120.5,424.5C 119.253,426.006 119.253,427.506 120.5,429C 118.833,429.667 117.167,429.667 115.5,429C 116.46,425.27 116.793,421.437 116.5,417.5 Z"/></g>
<g><path style="opacity:1" fill="#161616" d="M 119.5,418.5 C 120.5,418.5 121.5,418.5 122.5,418.5C 122.5,419.833 122.5,421.167 122.5,422.5C 121.5,422.5 120.5,422.5 119.5,422.5C 119.5,421.167 119.5,419.833 119.5,418.5 Z"/></g>
<g><path style="opacity:1" fill="#d4d4d4" d="M 231.5,418.5 C 232.209,417.596 233.209,417.263 234.5,417.5C 234.335,420.85 234.502,424.183 235,427.5C 237.044,428.772 238.878,428.439 240.5,426.5C 241.506,426.938 241.506,427.604 240.5,428.5C 237.216,429.657 233.882,429.824 230.5,429C 232.028,427.352 232.695,425.352 232.5,423C 232.492,421.293 232.158,419.793 231.5,418.5 Z"/></g>
</svg>
